<?xml version="1.0" encoding="UTF-8" standalone="no"?>
<!-- Generator: Adobe Illustrator 19.2.1, SVG Export Plug-In . SVG Version: 6.00 Build 0)  -->

<svg
   version="1.1"
   id="layer"
   x="0px"
   y="0px"
   viewBox="0 0 520.59998 53.066669"
   xml:space="preserve"
   sodipodi:docname="compressportLogo.svg"
   width="520.59998"
   height="53.066669"
   inkscape:version="1.1.2 (b8e25be8, 2022-02-05)"
   xmlns:inkscape="http://www.inkscape.org/namespaces/inkscape"
   xmlns:sodipodi="http://sodipodi.sourceforge.net/DTD/sodipodi-0.dtd"
   xmlns="http://www.w3.org/2000/svg"
   xmlns:svg="http://www.w3.org/2000/svg"><defs
   id="defs850" /><sodipodi:namedview
   id="namedview848"
   pagecolor="#ffffff"
   bordercolor="#666666"
   borderopacity="1.0"
   inkscape:pageshadow="2"
   inkscape:pageopacity="0.0"
   inkscape:pagecheckerboard="true"
   showgrid="false"
   fit-margin-top="5"
   fit-margin-left="2"
   fit-margin-right="2"
   fit-margin-bottom="5"
   inkscape:zoom="0.71779141"
   inkscape:cx="179.02137"
   inkscape:cy="-59.905983"
   inkscape:window-width="1280"
   inkscape:window-height="694"
   inkscape:window-x="0"
   inkscape:window-y="25"
   inkscape:window-maximized="0"
   inkscape:current-layer="layer" />
<style
   type="text/css"
   id="style824">
	.st0{fill:#010101;}
	.st1{fill:#DE2B26;}
	.st2{fill:#FFFFFF;}
</style>
<rect
   id="XMLID_32_"
   x="47.900002"
   y="-12.670032"
   class="st0"
   width="511.20001"
   height="77.400002"
   style="fill:none;fill-opacity:1" />
<rect
   id="XMLID_31_"
   x="-7.7000008"
   y="-12.670032"
   class="st1"
   width="77.400002"
   height="77.400002"
   style="fill:none" />
<path
   id="XMLID_30_"
   class="st2"
   d="M 38.5,9.1299621 C 35,11.329962 30.3,12.629962 27.4,13.229962 c -22.4,5.1 -22.7,-0.9 -22.4,-2.8 0.3,-2.1999999 2.8,-3.4999999 2.8,-3.4999999 -3.8,5.0999999 6,5.0999999 19,2.8 0,0 6.3,-0.9 13.6,-2.8 -0.3,0 -0.3,1 -1.9,2.2" />
<path
   id="XMLID_29_"
   class="st2"
   d="m 37.8,5.7299621 c 0,0 14.2,-3.2 3.8,3.8 0,-0.4 4.8,-5.4 -3.8,-3.8" />
<path
   id="XMLID_28_"
   class="st2"
   d="m 28,47.429962 c 6,-1.3 22.1,-4.4 22.4,-8.5 0,0 0.6,-1.6 -0.9,-1.9 v -3.8 c 0,0 7.9,0.9 7.9,4.7 0,3.8 -7,10.7 -26.2,10.1 z" />
<path
   id="XMLID_27_"
   class="st2"
   d="m 7.8,30.329962 c 0,0 -2.5,1.6 -2.8,3.5 -0.3,2.2 2.2,7.6 25.6,3.8 18.3,-2.8 27.8,-8.8 26.5,-14.5 -0.6,-2.8 -7.6,-3.8 -7.6,-3.8 v 3.5 c 0,0 1.3,1.3 1.3,1.9 0,2.8 -8.2,6 -21.2,8.2 -12.6,2.1 -25.6,2.8 -21.8,-2.6" />
<path
   id="XMLID_26_"
   class="st2"
   d="m 7.8,17.429962 c 0,0 -2.5,1.6 -2.8,3.5 -0.3,2.2 2.5,8.2 25.6,3.8 18.3,-3.2 27.8,-8.8 26.5,-14.5 C 56.5,7.4299621 49.5,6.4299621 49.5,6.4299621 v 3.5 c 0,0 1.3,1.2999999 1.3,1.8999999 0,2.8 -8.2,6 -21.2,8.2 -12.6,2.4 -25.6,3 -21.8,-2.6" />
<path
   id="XMLID_25_"
   class="st2"
   d="m 71.2,26.529962 c 0,-8.2 6.3,-13.9 14.5,-13.9 6.6,0 10.1,3.8 11.7,7.3 l -6,2.8 c -0.9,-2.2 -3.2,-3.8 -5.7,-3.8 -4.4,0 -7.6,3.5 -7.6,7.9 0,4.4 3.2,7.9 7.6,7.9 2.5,0 4.7,-1.9 5.7,-3.8 l 6,2.8 c -1.6,2.8 -5.1,6.6 -11.7,6.6 -8.1,0.1 -14.5,-5.6 -14.5,-13.8" />
<path
   id="XMLID_63_"
   class="st2"
   d="m 109.2,26.529962 c 0,-8.2 6.3,-13.9 14.5,-13.9 8.2,0 14.2,5.7 14.2,13.9 0,8.2 -6,13.9 -14.2,13.9 -8.5,0 -14.5,-6 -14.5,-13.9 m 21.8,0 c 0,-4.4 -2.8,-7.9 -7.3,-7.9 -4.4,0 -7.3,3.5 -7.3,7.9 0,4.4 2.8,7.9 7.3,7.9 4.1,-0.3 7.3,-3.8 7.3,-7.9" />
<polygon
   id="XMLID_22_"
   class="st2"
   points="226.6,335.1 223.5,335.1 216.8,317.4 216.8,335.1 209.9,335.1 209.9,308.2 219.4,308.2 225.1,323.1 230.7,308.2 240.2,308.2 240.2,335.1 233.3,335.1 233.3,317.4 "
   transform="translate(-58.4,-295.27004)" />
<path
   id="XMLID_59_"
   class="st2"
   d="m 197.3,39.829962 v -26.9 h 13.6 c 6,0 9.5,4.1 9.5,8.8 0,4.7 -3.2,8.8 -9.5,8.8 h -6.6 v 9.2 c 0,0.1 -7,0.1 -7,0.1 z m 15.8,-18 c 0,-1.9 -1.6,-2.8 -3.5,-2.8 h -5.4 v 5.7 h 5.4 c 1.9,-0.1 3.5,-1 3.5,-2.9" />
<path
   id="XMLID_56_"
   class="st2"
   d="m 248.5,39.829962 -4.4,-9.2 h -3.5 v 9.2 h -7 v -26.9 h 13.3 c 6,0 9.5,4.1 9.5,8.8 0,4.7 -2.8,7.3 -5.4,8.2 l 5.4,9.8 c 0,0.1 -7.9,0.1 -7.9,0.1 z m 0.6,-18 c 0,-1.9 -1.6,-2.8 -3.5,-2.8 h -5.4 v 5.7 h 5.4 c 2.3,-0.1 3.5,-1 3.5,-2.9" />
<polygon
   id="XMLID_17_"
   class="st2"
   points="349.2,308.2 349.2,314.2 336.3,314.2 336.3,318.3 348.9,318.3 348.9,324.7 336.3,324.7 336.3,329.1 349.2,329.1 349.2,335.1 329.3,335.1 329.3,308.2 "
   transform="translate(-58.4,-295.27004)" />
<path
   id="XMLID_16_"
   class="st1"
   d="m 306.6,36.029962 3.8,-5.4 c 1.9,1.9 5.1,3.5 8.5,3.5 2.2,0 3.8,-0.9 3.8,-2.2 0,-3.5 -15.2,-0.6 -15.2,-11.1 0,-4.4 3.8,-8.5 10.7,-8.5 4.4,0 8.2,1.3 11.1,3.8 l -3.8,5.1 c -2.2,-1.9 -5.1,-2.8 -7.9,-2.8 -1.9,0 -2.8,0.6 -2.8,1.9 0,3.2 15.2,0.9 15.2,10.7 0,5.4 -4.1,8.8 -11.1,8.8 -6,0.3 -9.7,-1.3 -12.3,-3.8"
   style="fill:#ffffff;fill-opacity:1" />
<path
   id="XMLID_15_"
   class="st2"
   d="m 344.2,36.029962 3.8,-5.4 c 1.9,1.9 5.1,3.5 8.5,3.5 2.2,0 3.8,-0.9 3.8,-2.2 0,-3.5 -15.2,-0.6 -15.2,-11.1 0,-4.4 3.8,-8.5 10.7,-8.5 4.4,0 8.2,1.3 11.1,3.8 l -3.8,5.1 c -2.2,-1.9 -5.1,-2.8 -7.9,-2.8 -1.9,0 -2.8,0.6 -2.8,1.9 0,3.2 15.2,0.9 15.2,10.7 0,5.4 -4.1,8.8 -11.4,8.8 -5.3,0.3 -9.1,-1.3 -12,-3.8" />
<path
   id="XMLID_50_"
   class="st2"
   d="m 382.1,39.829962 v -26.9 h 13.6 c 6,0 9.5,4.1 9.5,8.8 0,4.7 -3.2,8.8 -9.5,8.8 h -6.6 v 9.2 c 0,0.1 -7,0.1 -7,0.1 z m 15.8,-18 c 0,-1.9 -1.6,-2.8 -3.5,-2.8 H 389 v 5.7 h 5.4 c 2.3,-0.1 3.5,-1 3.5,-2.9" />
<path
   id="XMLID_47_"
   class="st2"
   d="m 417.8,26.529962 c 0,-8.2 6.3,-13.9 14.5,-13.9 8.2,0 14.2,5.7 14.2,13.9 0,8.2 -6,13.9 -14.2,13.9 -8.2,0 -14.5,-6 -14.5,-13.9 m 21.8,0 c 0,-4.4 -2.8,-7.9 -7.3,-7.9 -4.4,0 -7.3,3.5 -7.3,7.9 0,4.4 2.8,7.9 7.3,7.9 4.5,-0.3 7.3,-3.8 7.3,-7.9" />
<path
   id="XMLID_44_"
   class="st2"
   d="m 475.3,39.829962 -4.4,-9.2 h -3.5 v 9.2 h -7 v -26.9 H 474 c 6,0 9.5,4.1 9.5,8.8 0,4.7 -2.8,7.3 -5.4,8.2 l 5.4,9.8 c 0.1,0.1 -8.2,0.1 -8.2,0.1 z m 0.7,-18 c 0,-1.9 -1.6,-2.8 -3.5,-2.8 h -5.4 v 5.7 h 5.4 c 1.9,-0.1 3.5,-1 3.5,-2.9" />
<polygon
   id="XMLID_8_"
   class="st2"
   points="554.9,314.2 554.9,308.2 577,308.2 577,314.2 569.4,314.2 569.4,335.1 562.5,335.1 562.5,314.2 "
   transform="translate(-58.4,-295.27004)" />
<path
   id="XMLID_38_"
   class="st2"
   d="m 530,21.529962 c -2.5,0 -4.7,-2.2 -4.7,-4.7 0,-2.5 2.2,-4.7 4.7,-4.7 2.5,0 4.7,1.9 4.7,4.7 0,2.4 -2.2,4.7 -4.7,4.7 m 0,-8.6 c -2.2,0 -3.8,1.6 -3.8,3.8 0,2.2 1.6,3.8 3.8,3.8 2.2,0 3.8,-1.9 3.8,-3.8 0.3,-2.2 -1.6,-3.8 -3.8,-3.8 m 1.3,6.3 -1.3,-2.2 h -0.9 v 2.2 h -0.6 v -5.1 h 2.2 c 0.9,0 1.6,0.6 1.6,1.6 0,1.3 -0.9,1.6 -1.3,1.6 l 1.3,2.2 h -0.9 v -0.3 z m -0.7,-4.4 h -1.3 v 1.9 h 1.3 c 0.3,0 0.9,-0.3 0.9,-0.9 0.1,-0.7 -0.5,-1 -0.9,-1" />

</svg>
