<?xml version="1.0" encoding="UTF-8" standalone="no"?>
<!-- Generator: Adobe Illustrator 19.2.1, SVG Export Plug-In . SVG Version: 6.00 Build 0)  -->

<svg
   version="1.1"
   id="layer"
   x="0px"
   y="0px"
   viewBox="0 0 610.02789 136.3"
   xml:space="preserve"
   sodipodi:docname="hokOneLogo.svg"
   width="610.02789"
   height="136.3"
   inkscape:version="1.1.2 (b8e25be8, 2022-02-05)"
   xmlns:inkscape="http://www.inkscape.org/namespaces/inkscape"
   xmlns:sodipodi="http://sodipodi.sourceforge.net/DTD/sodipodi-0.dtd"
   xmlns="http://www.w3.org/2000/svg"
   xmlns:svg="http://www.w3.org/2000/svg"><defs
   id="defs849" /><sodipodi:namedview
   id="namedview847"
   pagecolor="#ffffff"
   bordercolor="#666666"
   borderopacity="1.0"
   inkscape:pageshadow="2"
   inkscape:pageopacity="0.0"
   inkscape:pagecheckerboard="0"
   showgrid="false"
   fit-margin-top="5"
   fit-margin-left="5"
   fit-margin-bottom="5"
   fit-margin-right="5"
   inkscape:zoom="0.71779141"
   inkscape:cx="286.29487"
   inkscape:cy="30.649573"
   inkscape:window-width="1280"
   inkscape:window-height="694"
   inkscape:window-x="6"
   inkscape:window-y="132"
   inkscape:window-maximized="0"
   inkscape:current-layer="layer" />
<style
   type="text/css"
   id="style824">
	.st0{fill:#0082CA;}
</style>
<path
   class="st0"
   d="m 447.50726,66.6 c 18.5,0 32.1,-13 33.1,-31.7 0.9,-16.8 -10.9,-28.6 -28.7,-28.6 -19.2,0 -33.4,12.7 -34.4,30.9 -0.9,17.6 11.1,29.4 30,29.4 m -12.5,-29.9 c 0.4,-8.1 6.9,-14 15.3,-14 8.2,0 13.3,5.4 12.8,13.7 -0.4,8.2 -6.6,13.9 -15,13.9 -8.5,-0.1 -13.6,-5.4 -13.1,-13.6"
   id="path826"
   style="fill:#ecf0f1;fill-opacity:1" />
<path
   class="st0"
   d="m 478.90726,62.1 c -0.2,3.4 2.9,3.4 4.5,3.4 h 7.7 c 3.5,0 4.4,-0.7 5,-4.2 l 4,-22.6 c 0.3,-2.1 0.6,-3.8 0.8,-5.8 1.1,2.7 2.3,5 3.4,7.2 l 12.3,22.6 0.1,0.3 c 1.1,2 1.6,2.5 4,2.5 h 10.5 c 3.5,0 4.4,-0.7 5,-4.2 l 8.6,-48.8 0.1,-0.7 c 0.1,-0.6 0.1,-0.6 0.1,-0.9 0.2,-3.4 -2.9,-3.4 -4.5,-3.4 h -7.7 c -3.5,0 -4.4,0.7 -5,4.2 l -4.4,24.9 c -0.2,1.3 -0.4,2.5 -0.6,3.7 l -0.4,-1.1 c -0.7,-1.6 -1.5,-3.1 -2.2,-4.4 l -13.3,-24.8 c -1.1,-2 -1.6,-2.5 -4,-2.5 h -10.3 c -3.5,0 -4.4,0.7 -5,4.2 l -8.6,48.8 c -0.1,1.2 -0.1,1.2 -0.1,1.6"
   id="path828"
   style="fill:#ecf0f1;fill-opacity:1" />
<path
   class="st0"
   d="m 541.00726,62.1 c -0.2,3.4 2.9,3.4 4.5,3.4 h 24.5 c 3.5,0 4.4,-0.7 5,-4.2 l 1.1,-6.2 c 0,-0.2 0,-0.4 0.1,-0.7 0,-0.3 0.1,-0.6 0.1,-0.8 0.2,-3.4 -3,-3.4 -4.4,-3.4 h -11.7 l 1,-5.9 h 11.4 c 3.5,0 4.4,-0.7 5,-4.2 l 1.1,-6 c 0.1,-0.8 0.2,-1.3 0.2,-1.7 0.2,-3.4 -3,-3.4 -4.5,-3.4 h -10.5 l 1.2,-6.3 h 11.9 c 3.4,0 4.3,-0.8 4.9,-4.2 l 1.2,-6.7 c 0.1,-0.6 0.1,-0.6 0.1,-0.9 0.2,-3.4 -2.9,-3.4 -4.5,-3.4 h -23.9 c -3.5,0 -4.4,0.7 -5,4.2 l -8.6,48.8 c -0.1,1.1 -0.1,1.2 -0.2,1.6"
   id="path830"
   style="fill:#ecf0f1;fill-opacity:1" />
<path
   class="st0"
   d="m 492.00726,98.5 c 0.9,-16.8 -10.9,-28.6 -28.7,-28.6 -19.3,0 -33.4,12.7 -34.4,30.9 -0.9,17.6 11.1,29.4 30,29.4 18.5,0 32.1,-13.1 33.1,-31.7 m -17.5,1.5 c -0.4,8.2 -6.6,13.9 -15,13.9 -8.4,0 -13.5,-5.3 -13.1,-13.6 0.4,-8.1 6.9,-14 15.3,-14 8.2,-0.1 13.2,5.3 12.8,13.7"
   id="path832"
   style="fill:#ecf0f1;fill-opacity:1" />
<path
   class="st0"
   d="m 556.50726,75.4 c 0.1,-0.6 0.1,-0.6 0.1,-0.9 0.2,-3.4 -2.9,-3.4 -4.4,-3.4 h -7.7 c -3.5,0 -4.4,0.7 -5,4.2 l -4.4,24.9 c -0.2,1.3 -0.4,2.5 -0.6,3.7 l -0.4,-1.1 c -0.7,-1.6 -1.5,-3.1 -2.2,-4.4 l -13.3,-24.8 c -1.1,-2 -1.6,-2.5 -4,-2.5 h -10.4 c -3.5,0 -4.4,0.7 -5,4.2 l -8.6,48.8 c -0.3,1.3 -0.3,1.3 -0.3,1.7 -0.2,3.4 2.9,3.4 4.5,3.4 h 7.7 c 3.5,0 4.4,-0.7 5,-4.2 l 4,-22.6 c 0.3,-2.1 0.6,-3.9 0.8,-5.8 1.2,2.7 2.3,5 3.4,7.2 l 12.3,22.6 0.2,0.3 c 1.1,2 1.6,2.5 4,2.5 h 10.5 c 3.5,0 4.4,-0.7 5,-4.2 l 8.6,-48.8 z"
   id="path834"
   style="fill:#ecf0f1;fill-opacity:1" />
<path
   class="st0"
   d="m 584.10726,107.9 c 3.5,0 4.4,-0.7 5,-4.2 l 1.1,-6 c 0.1,-0.8 0.2,-1.3 0.2,-1.7 0.2,-3.4 -3,-3.4 -4.5,-3.4 h -10.5 l 1.2,-6.3 h 11.9 c 3.4,0 4.3,-0.7 4.9,-4.2 l 1.2,-6.7 c 0.1,-0.6 0.1,-0.6 0.1,-0.9 0.2,-3.4 -2.9,-3.4 -4.5,-3.4 h -23.9 c -3.5,0 -4.4,0.7 -5,4.2 l -8.6,48.7 c -0.3,1.3 -0.3,1.3 -0.3,1.7 -0.2,3.4 2.9,3.4 4.4,3.4 h 24.5 c 3.5,0 4.4,-0.7 5,-4.2 l 1.1,-6.2 c 0,-0.2 0.1,-0.5 0.1,-0.7 0,-0.3 0.1,-0.6 0.1,-0.8 0.2,-3.4 -3,-3.4 -4.4,-3.4 h -11.7 l 1,-6 h 11.6 z"
   id="path836"
   style="fill:#ecf0f1;fill-opacity:1" />
<path
   class="st0"
   d="m 263.10726,58.8 c -0.1,0 -0.3,0 -0.4,0 -0.1,0.1 -0.5,0.2 -1,0.5 -1.6,0.8 -4.9,2.5 -7.1,3.4 -4.5,1.8 -10.3,2.5 -12.5,2.8 -0.4,0 -0.7,0.1 -0.8,0.1 -0.9,0.2 -4.3,0.5 -5.7,0.6 -3.5,0.2 -7.6,0.2 -11.3,0 -3.9,-0.2 -7.6,-0.4 -10.7,-0.2 h -0.5 c -4.3,0.1 -11.8,1.7 -13.6,2.2 -2.9,0.8 -11,1.5 -13.4,1.7 -0.7,0.1 -2.1,0.1 -4,-0.2 -1.8,-0.4 -3.2,-1 -3.8,-1.4 -2.1,-1.1 -9.2,-5 -11.6,-6.9 -1.5,-1.2 -7.7,-5.6 -11.6,-7.4 l -0.4,-0.2 c -2.7,-1.3 -6.2,-2.7 -9.9,-4 -3.4,-1.3 -7.2,-2.9 -10.3,-4.5 -1.2,-0.6 -4.2,-2.2 -5,-2.7 -0.1,-0.1 -0.4,-0.2 -0.7,-0.4 -1.9,-1.1 -7,-4.1 -10.4,-7.5 -1.7,-1.7 -4.1,-4.6 -5.2,-5.9 -0.4,-0.4 -0.6,-0.7 -0.7,-0.9 -0.1,-0.1 -0.2,-0.2 -0.3,-0.2 -0.4,-0.1 -0.9,0.1 -1.1,0.3 -0.4,0.3 -0.8,0.9 -0.6,1.3 0.2,0.4 3.5,5.3 5.9,7.7 2.4,2.4 6,5 8.4,6.6 1.3,0.8 6.7,4.2 6.8,4.2 1.4,0.9 2.9,1.9 4.9,3.1 2.4,1.5 5.4,3.3 9.3,5.8 l 1.2,0.8 c 8.2,5.3 9.9,6.5 15.7,12.1 2.9,2.7 4.4,4.6 5.4,5.8 l 0.3,0.3 c 0.3,0.5 0.9,1.2 1.6,2.2 1.3,1.8 3.6,4.8 5.6,7.2 0.9,1 1.4,1.5 3.1,1.8 v 0 c 1.6,0.3 2.3,0.1 3.5,-0.5 2.8,-1.3 6,-3.2 8,-4.4 1,-0.6 1.9,-1.1 2.4,-1.4 l 0.4,-0.2 c 1.4,-0.7 3.5,-1.8 7.3,-3.2 7.6,-2.8 9.6,-3.2 19.2,-4.8 l 1.4,-0.2 c 4.6,-0.8 8,-1.3 10.8,-1.6 2.3,-0.3 4.1,-0.6 5.7,-0.8 0.1,0 6.4,-0.9 7.9,-1.2 2.8,-0.5 7.2,-1.5 10.3,-2.7 3.1,-1.2 8.1,-4.4 8.5,-4.7 0.4,-0.2 0.2,-1 0,-1.4 -0.2,-0.6 -0.6,-1 -1,-1"
   id="path838"
   style="fill:#ecf0f1;fill-opacity:1" />
<path
   class="st0"
   d="m 408.10726,15.5 c -1.1,-6.8 -2.5,-8.1 -9.5,-8.1 h -22.4 c -5.3,0 -6.9,0.4 -9.2,4.5 l -0.3,0.5 c -0.2,0.3 -0.4,0.7 -0.7,1.3 l -45.8,82.1 -16.8,-26.4 38.4,-48.8 c 2.3,-2.9 3.2,-4.2 3.4,-6.4 0.1,-1.8 -0.4,-3.4 -1.5,-4.5 -1.9,-2 -5,-2.3 -7.9,-2.3 h -20.6 c -3.9,0 -4.8,0.9 -7.2,3.8 l -30.3,38.5 5.7,-31.9 0.1,-0.4 c 0,-0.6 0.1,-1.2 0.2,-1.7 0.1,-0.5 0.1,-1 0.2,-1.4 0,-0.8 0.2,-3.1 -1.5,-4.8 -1.7,-1.8 -4.3,-2.1 -7.7,-2.1 h -16.1 c -7.2,0 -8.8,1.3 -10,8.4 l -4.4,24.5 c -2.4,-6.6 -6,-12.5 -10.8,-17.6 -10.8,-11.4 -27.1,-17.7 -45.9,-17.7 -25.1,0 -46.1,10.3 -58.9,27.4 l 2.6,-14.5 0.3,-1.6 c 0.2,-1 0.2,-1.1 0.3,-1.9 0,-0.8 0.2,-3.1 -1.5,-4.8 -1.7,-1.8 -4.3,-2.1 -7.7,-2.1 h -16.3 c -7.200004,0 -8.800004,1.3 -10.000004,8.4 l -6.1,33.8 h -36.9 l 5.7,-31.7 v -0.4 c 0,-0.6 0.1,-1.2 0.2,-1.7 0.1,-0.5 0.1,-1 0.2,-1.4 0,-0.8 0.2,-3.1 -1.5,-4.8 -1.7,-1.8 -4.3,-2.1 -7.7,-2.1 h -16.2 c -7.2,0 -8.8,1.3 -10,8.4 L 5.6072562,118.6 c -0.5,2.5 -0.5,2.6 -0.6,3.5 0,0.8 -0.2,3.1 1.5,4.8 1.7,1.8 4.2999998,2.1 7.6999998,2.1 h 16.3 c 7.2,0 8.8,-1.3 10,-8.4 l 7.1,-39.7 h 36.6 l -6.7,37.7 -0.2,1.2 c -0.3,1.4 -0.3,1.5 -0.3,2.3 0,0.8 -0.2,3.1 1.5,4.8 1.7,1.8 4.3,2.1 7.7,2.1 h 16.300004 c 7.2,0 8.8,-1.3 10,-8.4 l 5.2,-28.8 c 2.4,7.9 6.4,15 12.1,21 11.3,11.9 28.4,18.5 48.3,18.5 22.5,0 41.6,-9.3 54.1,-24.8 l -2.1,12 c -0.5,2.3 -0.5,2.6 -0.6,3.6 0,0.8 -0.2,3.1 1.5,4.8 1.7,1.8 4.3,2.1 7.7,2.1 h 16.3 c 7.2,0 8.8,-1.3 10,-8.4 l 6.7,-37.2 c 1.3,2.5 2.7,5.1 4,7.2 l 20.4,33.2 0.5,0.8 c 2.4,3.8 3.5,4.4 8,4.4 h 11.1 10.5 8.1 c 5.5,0 7.2,-0.5 9.4,-4.7 l 0.3,-0.6 v -0.1 c 0.2,-0.3 0.4,-0.6 0.5,-1 l 7.7,-14.9 h 35.9 l 2.4,13.4 c 1.3,6.6 2.8,7.8 9.5,7.8 h 17.7 c 3,0 9.2,0 9.6,-6.4 0.1,-1.2 0,-1.5 -0.5,-4.4 z m -141.6,48.9 c -0.1,0 -5.6,3.7 -9.4,5.2 -3.5,1.3 -8.2,2.4 -11.1,2.9 -1,0.2 -3.9,0.6 -6,0.9 -1,0.1 -1.7,0.2 -1.9,0.3 v 0 h -0.1 c -1.6,0.3 -3.5,0.5 -5.8,0.9 h -0.3 c -2.7,0.4 -6.1,0.9 -10.4,1.6 l -1.4,0.2 h -0.2 c -5.5,0.9 -8.3,1.4 -11.2,2.2 -4.7,11.5 -15.9,19 -29.9,19 -8.8,0 -16,-2.8 -21,-8 -4.9,-5.1 -7.2,-12.3 -6.7,-20.8 0.1,-1.2 0.2,-2.3 0.4,-3.4 -1.7,-1.2 -3.8,-2.6 -6.9,-4.6 l -1.1,-0.7 c -3.6,-2.3 -6.5,-4.1 -8.8,-5.5 l -0.5,-0.3 c -2,-1.2 -3.6,-2.2 -5,-3.1 l -0.6,-0.4 c -2.6,-1.6 -5.3,-3.2 -6.2,-3.9 -1.3,-0.9 -5.9,-4 -9,-7.1 -2.9,-2.8 -6.6,-8.4 -6.6,-8.5 -1.4,-2.2 -0.7,-5.1 1.6,-6.9 1,-0.7 2.3,-1.2 3.5,-1.2 0.3,0 0.7,0 1,0.1 1.1,0.2 2,0.7 2.7,1.5 l 0.1,0.1 0.1,0.1 c 0.2,0.2 0.4,0.4 0.6,0.8 0.8,1 3.3,4 5,5.6 1.4,1.4 4.3,3.8 9.6,6.9 l 0.3,0.2 c 0.2,0.1 0.4,0.3 0.5,0.3 0.5,0.4 3.3,1.8 4.6,2.5 2.9,1.5 6.6,3 9.9,4.3 l 0.2,0.1 c 3.7,1.4 7.2,2.7 10.1,4.1 l 0.4,0.2 c 0.3,0.2 0.7,0.4 1.1,0.5 5.9,-7.4 15.2,-11.9 26,-11.9 8.5,0 15.6,2.7 20.4,7.8 3.7,3.9 6,9.2 6.6,15.3 0.7,-0.1 1.3,-0.1 1.9,-0.1 h 0.5 c 0.9,-0.1 1.8,-0.1 2.9,-0.1 2.7,0 5.6,0.2 8.2,0.3 1.6,0.1 3.2,0.1 4.9,0.1 2,0 4.1,-0.1 5.9,-0.2 1.5,-0.1 4.5,-0.4 5.1,-0.5 h 0.2 c 0.2,0 0.5,-0.1 0.9,-0.1 h 0.1 c 2,-0.3 7.5,-0.9 11.4,-2.5 2.3,-0.9 5.8,-2.7 6.9,-3.2 0.5,-0.3 0.9,-0.4 1,-0.5 l 0.4,-0.2 c 0.5,-0.2 1.1,-0.3 1.7,-0.3 0.3,0 0.7,0 1,0.1 1.9,0.4 3.2,1.7 3.8,2.9 1.3,2.6 0.7,5.6 -1.4,7 m 99.7,15.5 11.4,-22.1 c 0.6,-1.3 1.3,-2.5 1.9,-3.8 0.3,1.9 0.6,4.1 1.1,7.1 l 2.9,18.9 h -17.3 z"
   id="path840"
   style="fill:#ecf0f1;fill-opacity:1" />


</svg>
