<?xml version="1.0" encoding="UTF-8" standalone="no"?>
<!-- Created with Inkscape (http://www.inkscape.org/) -->

<svg
   width="296.27722mm"
   height="127.66818mm"
   viewBox="0 0 296.27722 127.66818"
   version="1.1"
   id="svg9492"
   inkscape:version="1.1.2 (b8e25be8, 2022-02-05)"
   sodipodi:docname="Les-Gabizos-profile.svg"
   xmlns:inkscape="http://www.inkscape.org/namespaces/inkscape"
   xmlns:sodipodi="http://sodipodi.sourceforge.net/DTD/sodipodi-0.dtd"
   xmlns="http://www.w3.org/2000/svg"
   xmlns:svg="http://www.w3.org/2000/svg">
  <sodipodi:namedview
     id="namedview9494"
     pagecolor="#ffffff"
     bordercolor="#666666"
     borderopacity="1.0"
     inkscape:pageshadow="2"
     inkscape:pageopacity="0.0"
     inkscape:pagecheckerboard="0"
     inkscape:document-units="mm"
     showgrid="false"
     fit-margin-top="2"
     fit-margin-left="2"
     fit-margin-right="2"
     fit-margin-bottom="2"
     inkscape:zoom="0.68111408"
     inkscape:cx="429.44348"
     inkscape:cy="161.50011"
     inkscape:window-width="1280"
     inkscape:window-height="694"
     inkscape:window-x="0"
     inkscape:window-y="25"
     inkscape:window-maximized="0"
     inkscape:current-layer="layer1" />
  <defs
     id="defs9489">
    <rect
       x="32.300022"
       y="179.1183"
       width="954.31885"
       height="196.7365"
       id="rect83282" />
    <rect
       x="369.16641"
       y="675.21729"
       width="98.841331"
       height="44.061798"
       id="rect68807" />
    <rect
       x="387.63281"
       y="339.28473"
       width="178.00822"
       height="31.910559"
       id="rect18401" />
    <rect
       x="39.621948"
       y="460.12585"
       width="431.76208"
       height="73.172684"
       id="rect12127" />
    <rect
       x="387.63281"
       y="339.28473"
       width="99.181007"
       height="29.144691"
       id="rect18401-7" />
    <rect
       x="387.63281"
       y="339.28473"
       width="139.97754"
       height="27.070292"
       id="rect18401-7-8" />
    <rect
       x="387.63281"
       y="339.28473"
       width="35.220123"
       height="25.318708"
       id="rect18401-7-8-4" />
    <rect
       x="387.63281"
       y="339.28473"
       width="96.415138"
       height="31.910559"
       id="rect18401-2" />
    <rect
       x="387.63281"
       y="339.28473"
       width="96.415138"
       height="31.910559"
       id="rect18401-2-5" />
    <rect
       x="387.63281"
       y="339.28473"
       width="116.62556"
       height="28.545361"
       id="rect18401-2-4" />
    <rect
       x="369.16641"
       y="675.21729"
       width="98.841331"
       height="44.061798"
       id="rect68807-1" />
    <rect
       x="369.16641"
       y="675.21729"
       width="98.841331"
       height="44.061798"
       id="rect68807-1-6" />
    <rect
       x="369.16641"
       y="675.21729"
       width="98.841331"
       height="44.061798"
       id="rect68807-1-6-5" />
  </defs>
  <g
     inkscape:label="Layer 1"
     inkscape:groupmode="layer"
     id="layer1"
     transform="translate(2.7242511,-54.176841)">
    <path
       style="fill:none;stroke:#000000;stroke-width:1.05833;stroke-linecap:butt;stroke-linejoin:miter;stroke-miterlimit:4;stroke-dasharray:none;stroke-opacity:1"
       d="m -0.67634241,161.98401 11.15964941,-1.01452 7.101595,-1.69085 35.169805,-5.07257 3.719882,-2.02903 5.41074,0.33817 6.087081,-5.74891 8.792453,-2.70537 7.439766,-2.02903 16.908561,-10.4833 3.04354,-0.67635 4.39622,-3.04354 h 2.3672 l 4.7344,-4.39622 8.45428,-6.42525 2.70537,3.38171 7.10159,2.3672 4.39623,2.70537 15.2177,14.20319 10.14514,3.71988 7.77794,4.73439 4.7344,0.33818 6.42525,-2.3672 6.08708,-2.02903 8.45428,-8.45428 11.49782,10.82148 9.80696,6.08708 5.07257,3.04354 5.74891,-3.71988 6.42526,-5.07257 h 1.69085 l 3.04354,-4.05805 3.38172,2.70537 h 3.71988 l 8.79245,3.04354 11.15966,5.74891 7.43976,2.3672 5.7489,5.07256 10.82148,1.01452"
       id="path9598" />
    <g
       aria-label="Sanctus 2480m"
       transform="matrix(0.26458333,0,0,0.26458333,-22.13702,18.843909)"
       id="text18399"
       style="font-size:21.3333px;line-height:1.25;white-space:pre;shape-inside:url(#rect18401)">
      <path
         d="m 400.98696,354.3211 q 0,0.90624 -0.42708,1.79166 -0.41667,0.88542 -1.17709,1.5 -0.83333,0.66666 -1.94791,1.04166 -1.10416,0.375 -2.66666,0.375 -1.67708,0 -3.02083,-0.3125 -1.33333,-0.3125 -2.71875,-0.92708 v -2.58333 h 0.14584 q 1.17708,0.97917 2.71874,1.51042 1.54167,0.53124 2.89583,0.53124 1.91666,0 2.97916,-0.71874 1.07292,-0.71875 1.07292,-1.91667 0,-1.03125 -0.51042,-1.52083 -0.5,-0.48958 -1.53125,-0.76041 -0.78124,-0.20834 -1.69791,-0.34375 -0.90625,-0.13542 -1.92708,-0.34375 -2.0625,-0.4375 -3.06249,-1.48958 -0.98959,-1.0625 -0.98959,-2.76042 0,-1.94791 1.64583,-3.18749 1.64583,-1.25 4.17708,-1.25 1.63542,0 3,0.3125 1.36458,0.3125 2.41666,0.77083 v 2.4375 h -0.14583 q -0.88542,-0.75 -2.33333,-1.23958 -1.4375,-0.5 -2.94792,-0.5 -1.65624,0 -2.66666,0.6875 -1,0.6875 -1,1.77083 0,0.96875 0.5,1.52083 0.5,0.55208 1.76042,0.84375 0.66666,0.14583 1.89583,0.35416 1.22916,0.20834 2.08333,0.42709 1.72916,0.45833 2.60416,1.38541 0.875,0.92708 0.875,2.59375 z"
         id="path120514" />
      <path
         d="m 413.18486,358.74817 h -1.94792 v -1.23958 q -0.26041,0.17708 -0.70833,0.5 -0.4375,0.3125 -0.85417,0.5 -0.48958,0.23958 -1.12499,0.39583 -0.63542,0.16667 -1.48959,0.16667 -1.57291,0 -2.66666,-1.04167 -1.09375,-1.04166 -1.09375,-2.65624 0,-1.32292 0.5625,-2.13542 0.57292,-0.82291 1.625,-1.29166 1.0625,-0.46875 2.55208,-0.63542 1.48958,-0.16666 3.19791,-0.25 v -0.30208 q 0,-0.66666 -0.23958,-1.10416 -0.22917,-0.4375 -0.66667,-0.6875 -0.41666,-0.23959 -1,-0.32292 -0.58333,-0.0833 -1.21874,-0.0833 -0.77084,0 -1.71875,0.20833 -0.94792,0.19792 -1.95833,0.58333 h -0.10417 v -1.98958 q 0.57292,-0.15625 1.65625,-0.34375 1.08333,-0.1875 2.13541,-0.1875 1.22917,0 2.13542,0.20834 0.91666,0.19791 1.58333,0.6875 0.65625,0.47916 1,1.23958 0.34375,0.76041 0.34375,1.88541 z m -1.94792,-2.86458 v -3.23957 q -0.89583,0.0521 -2.11458,0.15624 -1.20833,0.10417 -1.91666,0.30209 -0.84375,0.23958 -1.36458,0.75 -0.52084,0.5 -0.52084,1.38541 0,1 0.60417,1.51042 0.60417,0.49999 1.84375,0.49999 1.03125,0 1.88541,-0.39583 0.85417,-0.40625 1.58333,-0.96875 z"
         id="path120516" />
      <path
         d="m 426.70567,358.74817 h -1.95833 v -6.62499 q 0,-0.80208 -0.0937,-1.49999 -0.0937,-0.70834 -0.34375,-1.10417 -0.26042,-0.4375 -0.75,-0.64583 -0.48958,-0.21875 -1.27083,-0.21875 -0.80209,0 -1.67708,0.39583 -0.875,0.39583 -1.67708,1.01042 v 8.68748 h -1.95834 v -11.6354 h 1.95834 v 1.29167 q 0.91666,-0.76042 1.89583,-1.1875 0.97916,-0.42708 2.01041,-0.42708 1.88541,0 2.87499,1.13541 0.98959,1.13542 0.98959,3.27083 z"
         id="path120518" />
      <path
         d="m 439.08065,358.01901 q -0.97917,0.46875 -1.86458,0.72916 -0.875,0.26042 -1.86458,0.26042 -1.26042,0 -2.3125,-0.36458 -1.05208,-0.375 -1.80208,-1.125 -0.76041,-0.75 -1.17708,-1.89583 -0.41667,-1.14583 -0.41667,-2.67708 0,-2.85416 1.5625,-4.47916 1.57292,-1.625 4.14583,-1.625 1,0 1.95833,0.28125 0.96875,0.28125 1.77083,0.6875 v 2.17708 h -0.10417 q -0.89583,-0.69792 -1.85416,-1.07292 -0.94792,-0.37499 -1.85417,-0.37499 -1.66666,0 -2.63541,1.12499 -0.95833,1.11458 -0.95833,3.28125 0,2.10416 0.9375,3.23958 0.94791,1.12499 2.65624,1.12499 0.59375,0 1.20834,-0.15625 0.61458,-0.15624 1.10416,-0.40624 0.42708,-0.21875 0.80208,-0.45834 0.375,-0.25 0.59375,-0.42708 h 0.10417 z"
         id="path120520" />
      <path
         d="m 447.64313,358.64401 q -0.55208,0.14583 -1.20833,0.23958 -0.64583,0.0937 -1.15625,0.0937 -1.78124,0 -2.70832,-0.95833 -0.92709,-0.95834 -0.92709,-3.07292 v -6.18749 h -1.32291 v -1.64583 h 1.32291 v -3.34374 h 1.95833 v 3.34374 h 4.04166 v 1.64583 h -4.04166 v 5.30208 q 0,0.91666 0.0417,1.4375 0.0417,0.51041 0.29167,0.95833 0.22916,0.41667 0.625,0.61458 0.40624,0.1875 1.22916,0.1875 0.47917,0 1,-0.13542 0.52083,-0.14583 0.75,-0.23958 h 0.10416 z"
         id="path120522" />
      <path
         d="m 459.66395,358.74817 h -1.95833 v -1.29166 q -0.98958,0.78125 -1.89583,1.19791 -0.90625,0.41667 -2,0.41667 -1.83333,0 -2.85416,-1.11458 -1.02083,-1.125 -1.02083,-3.29166 v -7.55208 h 1.95833 v 6.62499 q 0,0.88542 0.0833,1.52083 0.0833,0.625 0.35417,1.07292 0.28125,0.45833 0.72916,0.66667 0.44792,0.20833 1.30208,0.20833 0.76042,0 1.65625,-0.39583 0.90625,-0.39584 1.6875,-1.01042 v -8.68749 h 1.95833 z"
         id="path120524" />
      <path
         d="m 471.8306,355.39401 q 0,1.59375 -1.32291,2.61458 -1.3125,1.02083 -3.59375,1.02083 -1.29166,0 -2.37499,-0.30208 -1.07292,-0.3125 -1.80208,-0.67708 v -2.19792 h 0.10416 q 0.92708,0.69792 2.0625,1.11459 1.13541,0.40624 2.17708,0.40624 1.29166,0 2.02083,-0.41666 0.72916,-0.41667 0.72916,-1.3125 0,-0.6875 -0.39583,-1.04166 -0.39583,-0.35417 -1.52083,-0.60417 -0.41667,-0.0937 -1.09375,-0.21875 -0.66666,-0.125 -1.21875,-0.27083 -1.53124,-0.40625 -2.17708,-1.1875 -0.63541,-0.79167 -0.63541,-1.9375 0,-0.71875 0.29166,-1.35416 0.30209,-0.63542 0.90625,-1.13542 0.58334,-0.48958 1.47917,-0.77083 0.90625,-0.29167 2.02083,-0.29167 1.04166,0 2.10416,0.26042 1.07292,0.25 1.78125,0.61458 v 2.09375 h -0.10417 q -0.75,-0.55208 -1.82291,-0.92708 -1.07292,-0.38542 -2.10417,-0.38542 -1.07291,0 -1.81249,0.41667 -0.73958,0.40625 -0.73958,1.21875 0,0.71874 0.44791,1.08333 0.4375,0.36458 1.41667,0.59375 0.54166,0.125 1.20833,0.25 0.67708,0.125 1.125,0.22916 1.36458,0.3125 2.10416,1.07292 0.73958,0.77083 0.73958,2.04166 z"
         id="path120526" />
      <path
         d="m 492.39307,358.74817 h -10.49999 v -2.17708 q 1.09375,-0.9375 2.1875,-1.87499 1.10417,-0.9375 2.05208,-1.86459 2,-1.93749 2.73958,-3.07291 0.73958,-1.14583 0.73958,-2.46874 0,-1.20833 -0.80208,-1.88542 -0.79167,-0.6875 -2.21875,-0.6875 -0.94791,0 -2.05208,0.33334 -1.10416,0.33333 -2.15624,1.02083 h -0.10417 v -2.1875 q 0.73958,-0.36458 1.96875,-0.66666 1.23958,-0.30209 2.39583,-0.30209 2.38541,0 3.73957,1.15625 1.35417,1.14583 1.35417,3.11458 0,0.88542 -0.22917,1.65625 -0.21875,0.76041 -0.65625,1.44791 -0.40625,0.64583 -0.95833,1.27083 -0.54166,0.625 -1.32291,1.38542 -1.11458,1.09375 -2.30208,2.12499 -1.1875,1.02084 -2.21875,1.89584 h 8.34374 z"
         id="path120528" />
      <path
         d="m 506.33055,354.3836 h -2.30208 v 4.36457 h -2 v -4.36457 h -7.42707 v -2.39583 l 7.5104,-8.74999 h 1.91667 v 9.47915 h 2.30208 z m -4.30208,-1.66667 v -6.99999 l -6.01041,6.99999 z"
         id="path120530" />
      <path
         d="m 519.67427,354.42526 q 0,2.01042 -1.57292,3.34375 -1.56249,1.33333 -3.93749,1.33333 -2.52083,0 -4.02083,-1.30208 -1.48958,-1.30208 -1.48958,-3.33333 0,-1.29167 0.75,-2.33333 0.75,-1.05208 2.11458,-1.66666 v -0.0625 q -1.25,-0.66667 -1.85416,-1.45834 -0.59375,-0.79166 -0.59375,-1.97916 0,-1.75 1.4375,-2.91666 1.43749,-1.16667 3.65624,-1.16667 2.32291,0 3.70833,1.11459 1.38541,1.11458 1.38541,2.83332 0,1.05209 -0.65625,2.07292 -0.65624,1.01041 -1.92708,1.58333 v 0.0625 q 1.45833,0.625 2.22917,1.54166 0.77083,0.91667 0.77083,2.33333 z m -2.46875,-7.5729 q 0,-1.11458 -0.86458,-1.77083 -0.85416,-0.66667 -2.1875,-0.66667 -1.31249,0 -2.15624,0.625 -0.83333,0.625 -0.83333,1.6875 0,0.75 0.41666,1.30208 0.42708,0.54167 1.28125,0.96875 0.38542,0.1875 1.10416,0.48958 0.72917,0.30208 1.41667,0.5 1.03125,-0.6875 1.42708,-1.42708 0.39583,-0.73958 0.39583,-1.70833 z m 0.32292,7.77082 q 0,-0.95833 -0.42708,-1.53125 -0.41667,-0.58333 -1.64583,-1.16666 -0.48959,-0.22917 -1.07292,-0.42709 -0.58333,-0.19791 -1.55208,-0.55208 -0.9375,0.51042 -1.51041,1.38542 -0.5625,0.87499 -0.5625,1.97916 0,1.40625 0.96874,2.32291 0.96875,0.91667 2.45833,0.91667 1.52084,0 2.42708,-0.78125 0.91667,-0.78125 0.91667,-2.14583 z"
         id="path120532" />
      <path
         d="m 533.12217,350.98777 q 0,4.17707 -1.31249,6.1354 -1.30209,1.94792 -4.05208,1.94792 -2.79166,0 -4.08333,-1.97917 -1.28125,-1.97916 -1.28125,-6.08332 0,-4.13541 1.30208,-6.10416 1.30209,-1.97916 4.0625,-1.97916 2.79166,0 4.07291,2.01041 1.29166,2 1.29166,6.05208 z m -2.73958,4.72916 q 0.36459,-0.84375 0.48959,-1.97917 0.13541,-1.14583 0.13541,-2.74999 0,-1.58333 -0.13541,-2.75 -0.125,-1.16666 -0.5,-1.97916 -0.36459,-0.80208 -1,-1.20833 -0.625,-0.40625 -1.61458,-0.40625 -0.97917,0 -1.625,0.40625 -0.63541,0.40625 -1.01041,1.22916 -0.35417,0.77083 -0.48959,2.01042 -0.125,1.23958 -0.125,2.71874 0,1.625 0.11459,2.71875 0.11458,1.09375 0.48958,1.95833 0.34375,0.8125 0.96875,1.23958 0.63541,0.42708 1.67708,0.42708 0.97916,0 1.625,-0.40625 0.64583,-0.40625 0.99999,-1.22916 z"
         id="path120534" />
      <path
         d="m 553.45548,358.74817 h -1.95833 v -6.62499 q 0,-0.75 -0.0729,-1.44791 -0.0625,-0.69792 -0.28125,-1.11458 -0.23958,-0.44792 -0.6875,-0.67709 -0.44792,-0.22916 -1.29166,-0.22916 -0.82292,0 -1.64584,0.41666 -0.82291,0.40625 -1.64583,1.04167 0.0312,0.23958 0.0521,0.5625 0.0208,0.3125 0.0208,0.625 v 7.4479 h -1.95833 v -6.62499 q 0,-0.77083 -0.0729,-1.45833 -0.0625,-0.69791 -0.28125,-1.11458 -0.23958,-0.44792 -0.68749,-0.66667 -0.44792,-0.22916 -1.29167,-0.22916 -0.80208,0 -1.61458,0.39583 -0.80208,0.39583 -1.60416,1.01042 v 8.68748 h -1.95833 v -11.6354 h 1.95833 v 1.29167 q 0.91666,-0.76042 1.82291,-1.1875 0.91666,-0.42708 1.94791,-0.42708 1.1875,0 2.01042,0.5 0.83333,0.5 1.23958,1.38541 1.1875,-1 2.16666,-1.4375 0.97917,-0.44791 2.09375,-0.44791 1.91666,0 2.82291,1.16666 0.91667,1.15625 0.91667,3.23958 z"
         id="path120536" />
    </g>
    <g
       aria-label="500m up"
       transform="matrix(0.15361772,-0.11113365,0.10710215,0.14804507,82.55824,146.82764)"
       id="text18399-7"
       style="font-size:21.3333px;line-height:1.25;white-space:pre;shape-inside:url(#rect18401-2)">
      <path
         d="m 399.68488,353.8211 q 0,1.08333 -0.39584,2.07291 -0.39583,0.98958 -1.08333,1.66666 -0.75,0.72917 -1.79166,1.125 -1.03125,0.38542 -2.39583,0.38542 -1.27083,0 -2.44791,-0.27083 -1.17709,-0.26042 -1.98958,-0.63542 v -2.19791 h 0.14583 q 0.85416,0.54166 2,0.92708 1.14583,0.375 2.24999,0.375 0.73958,0 1.42708,-0.20834 0.69792,-0.20833 1.23958,-0.72916 0.45834,-0.44792 0.6875,-1.07292 0.23959,-0.62499 0.23959,-1.44791 0,-0.80208 -0.28125,-1.35416 -0.27084,-0.55209 -0.76042,-0.88542 -0.54166,-0.39583 -1.32291,-0.55208 -0.77083,-0.16667 -1.72917,-0.16667 -0.91666,0 -1.77083,0.125 -0.84375,0.125 -1.45833,0.25 v -7.98957 h 9.33332 v 1.82291 h -7.3229 v 4.125 q 0.44791,-0.0417 0.91666,-0.0625 0.46875,-0.0208 0.8125,-0.0208 1.26041,0 2.20833,0.21875 0.94791,0.20834 1.73958,0.75 0.83333,0.57292 1.29166,1.47917 0.45834,0.90625 0.45834,2.27083 z"
         id="path120539" />
      <path
         d="m 413.37236,350.98777 q 0,4.17707 -1.3125,6.1354 -1.30208,1.94792 -4.05208,1.94792 -2.79166,0 -4.08333,-1.97917 -1.28124,-1.97916 -1.28124,-6.08332 0,-4.13541 1.30208,-6.10416 1.30208,-1.97916 4.06249,-1.97916 2.79166,0 4.07291,2.01041 1.29167,2 1.29167,6.05208 z m -2.73958,4.72916 q 0.36458,-0.84375 0.48958,-1.97917 0.13542,-1.14583 0.13542,-2.74999 0,-1.58333 -0.13542,-2.75 -0.125,-1.16666 -0.5,-1.97916 -0.36458,-0.80208 -1,-1.20833 -0.625,-0.40625 -1.61458,-0.40625 -0.97916,0 -1.625,0.40625 -0.63541,0.40625 -1.01041,1.22916 -0.35417,0.77083 -0.48958,2.01042 -0.125,1.23958 -0.125,2.71874 0,1.625 0.11458,2.71875 0.11458,1.09375 0.48958,1.95833 0.34375,0.8125 0.96875,1.23958 0.63542,0.42708 1.67708,0.42708 0.97917,0 1.625,-0.40625 0.64583,-0.40625 1,-1.22916 z"
         id="path120541" />
      <path
         d="m 426.95567,350.98777 q 0,4.17707 -1.3125,6.1354 -1.30208,1.94792 -4.05208,1.94792 -2.79166,0 -4.08332,-1.97917 -1.28125,-1.97916 -1.28125,-6.08332 0,-4.13541 1.30208,-6.10416 1.30208,-1.97916 4.06249,-1.97916 2.79166,0 4.07291,2.01041 1.29167,2 1.29167,6.05208 z m -2.73958,4.72916 q 0.36458,-0.84375 0.48958,-1.97917 0.13542,-1.14583 0.13542,-2.74999 0,-1.58333 -0.13542,-2.75 -0.125,-1.16666 -0.5,-1.97916 -0.36458,-0.80208 -1,-1.20833 -0.625,-0.40625 -1.61458,-0.40625 -0.97916,0 -1.62499,0.40625 -0.63542,0.40625 -1.01042,1.22916 -0.35417,0.77083 -0.48958,2.01042 -0.125,1.23958 -0.125,2.71874 0,1.625 0.11458,2.71875 0.11458,1.09375 0.48958,1.95833 0.34375,0.8125 0.96875,1.23958 0.63542,0.42708 1.67708,0.42708 0.97917,0 1.625,-0.40625 0.64583,-0.40625 1,-1.22916 z"
         id="path120543" />
      <path
         d="m 447.28897,358.74817 h -1.95833 v -6.62499 q 0,-0.75 -0.0729,-1.44791 -0.0625,-0.69792 -0.28125,-1.11458 -0.23958,-0.44792 -0.6875,-0.67709 -0.44791,-0.22916 -1.29166,-0.22916 -0.82292,0 -1.64583,0.41666 -0.82292,0.40625 -1.64583,1.04167 0.0312,0.23958 0.0521,0.5625 0.0208,0.3125 0.0208,0.625 v 7.4479 h -1.95833 v -6.62499 q 0,-0.77083 -0.0729,-1.45833 -0.0625,-0.69791 -0.28125,-1.11458 -0.23959,-0.44792 -0.6875,-0.66667 -0.44792,-0.22916 -1.29167,-0.22916 -0.80208,0 -1.61458,0.39583 -0.80208,0.39583 -1.60416,1.01042 v 8.68748 h -1.95833 v -11.6354 h 1.95833 v 1.29167 q 0.91666,-0.76042 1.82291,-1.1875 0.91667,-0.42708 1.94792,-0.42708 1.18749,0 2.01041,0.5 0.83333,0.5 1.23958,1.38541 1.1875,-1 2.16666,-1.4375 0.97917,-0.44791 2.09375,-0.44791 1.91666,0 2.82291,1.16666 0.91667,1.15625 0.91667,3.23958 z"
         id="path120545" />
      <path
         d="m 468.2056,358.74817 h -1.95833 v -1.29166 q -0.98958,0.78125 -1.89583,1.19791 -0.90625,0.41667 -1.99999,0.41667 -1.83333,0 -2.85417,-1.11458 -1.02083,-1.125 -1.02083,-3.29166 v -7.55208 h 1.95833 v 6.62499 q 0,0.88542 0.0833,1.52083 0.0833,0.625 0.35416,1.07292 0.28125,0.45833 0.72917,0.66667 0.44791,0.20833 1.30208,0.20833 0.76041,0 1.65625,-0.39583 0.90625,-0.39584 1.68749,-1.01042 v -8.68749 h 1.95833 z"
         id="path120547" />
      <path
         d="m 482.29933,352.78985 q 0,1.41666 -0.40625,2.59374 -0.40625,1.16667 -1.14583,1.97917 -0.6875,0.77083 -1.625,1.19791 -0.92708,0.41667 -1.96874,0.41667 -0.90625,0 -1.64584,-0.19792 -0.72916,-0.19791 -1.48958,-0.61458 v 4.87499 h -1.95833 v -15.92706 h 1.95833 v 1.21875 q 0.78125,-0.65625 1.75,-1.09375 0.97917,-0.44791 2.08333,-0.44791 2.10416,0 3.27083,1.59375 1.17708,1.58333 1.17708,4.40624 z m -2.02083,0.0521 q 0,-2.10416 -0.71875,-3.14583 -0.71875,-1.04166 -2.20833,-1.04166 -0.84375,0 -1.69791,0.36458 -0.85417,0.36458 -1.63542,0.95833 v 6.59374 q 0.83334,0.375 1.42708,0.51042 0.60417,0.13541 1.36459,0.13541 1.63541,0 2.55207,-1.10416 0.91667,-1.10417 0.91667,-3.27083 z"
         id="path120549" />
    </g>
    <g
       aria-label="1580m up"
       transform="matrix(0.29412219,-0.14032097,0.1341577,0.28956588,-101.80275,114.2514)"
       id="text18399-7-2"
       style="font-size:21.3333px;line-height:1.25;white-space:pre;shape-inside:url(#rect18401-2-4)">
      <path
         d="m 398.92446,358.74817 h -8.39582 v -1.58333 h 3.22916 v -10.39582 h -3.22916 v -1.41666 q 0.65625,0 1.40625,-0.10417 0.75,-0.11458 1.13541,-0.32291 0.47917,-0.26042 0.75,-0.65625 0.28125,-0.40625 0.32292,-1.08333 h 1.61458 v 13.97914 h 3.16666 z"
         id="path120552" />
      <path
         d="m 413.26819,353.8211 q 0,1.08333 -0.39583,2.07291 -0.39584,0.98958 -1.08334,1.66666 -0.74999,0.72917 -1.79166,1.125 -1.03125,0.38542 -2.39583,0.38542 -1.27083,0 -2.44791,-0.27083 -1.17708,-0.26042 -1.98958,-0.63542 v -2.19791 h 0.14583 q 0.85417,0.54166 2,0.92708 1.14583,0.375 2.24999,0.375 0.73959,0 1.42709,-0.20834 0.69791,-0.20833 1.23958,-0.72916 0.45833,-0.44792 0.6875,-1.07292 0.23958,-0.62499 0.23958,-1.44791 0,-0.80208 -0.28125,-1.35416 -0.27083,-0.55209 -0.76042,-0.88542 -0.54166,-0.39583 -1.32291,-0.55208 -0.77083,-0.16667 -1.72916,-0.16667 -0.91667,0 -1.77084,0.125 -0.84374,0.125 -1.45833,0.25 v -7.98957 h 9.33332 v 1.82291 h -7.3229 v 4.125 q 0.44791,-0.0417 0.91666,-0.0625 0.46875,-0.0208 0.8125,-0.0208 1.26042,0 2.20833,0.21875 0.94792,0.20834 1.73958,0.75 0.83333,0.57292 1.29167,1.47917 0.45833,0.90625 0.45833,2.27083 z"
         id="path120554" />
      <path
         d="m 427.09108,354.42526 q 0,2.01042 -1.57291,3.34375 -1.5625,1.33333 -3.93749,1.33333 -2.52083,0 -4.02083,-1.30208 -1.48958,-1.30208 -1.48958,-3.33333 0,-1.29167 0.75,-2.33333 0.75,-1.05208 2.11458,-1.66666 v -0.0625 q -1.25,-0.66667 -1.85417,-1.45834 -0.59375,-0.79166 -0.59375,-1.97916 0,-1.75 1.4375,-2.91666 1.4375,-1.16667 3.65625,-1.16667 2.32291,0 3.70832,1.11459 1.38542,1.11458 1.38542,2.83332 0,1.05209 -0.65625,2.07292 -0.65625,1.01041 -1.92708,1.58333 v 0.0625 q 1.45833,0.625 2.22916,1.54166 0.77083,0.91667 0.77083,2.33333 z m -2.46874,-7.5729 q 0,-1.11458 -0.86458,-1.77083 -0.85417,-0.66667 -2.1875,-0.66667 -1.3125,0 -2.15625,0.625 -0.83333,0.625 -0.83333,1.6875 0,0.75 0.41667,1.30208 0.42708,0.54167 1.28124,0.96875 0.38542,0.1875 1.10417,0.48958 0.72917,0.30208 1.41666,0.5 1.03125,-0.6875 1.42709,-1.42708 0.39583,-0.73958 0.39583,-1.70833 z m 0.32291,7.77082 q 0,-0.95833 -0.42708,-1.53125 -0.41666,-0.58333 -1.64583,-1.16666 -0.48958,-0.22917 -1.07291,-0.42709 -0.58334,-0.19791 -1.55209,-0.55208 -0.93749,0.51042 -1.51041,1.38542 -0.5625,0.87499 -0.5625,1.97916 0,1.40625 0.96875,2.32291 0.96875,0.91667 2.45833,0.91667 1.52083,0 2.42708,-0.78125 0.91666,-0.78125 0.91666,-2.14583 z"
         id="path120556" />
      <path
         d="m 440.53898,350.98777 q 0,4.17707 -1.3125,6.1354 -1.30208,1.94792 -4.05208,1.94792 -2.79166,0 -4.08332,-1.97917 -1.28125,-1.97916 -1.28125,-6.08332 0,-4.13541 1.30208,-6.10416 1.30208,-1.97916 4.06249,-1.97916 2.79167,0 4.07291,2.01041 1.29167,2 1.29167,6.05208 z m -2.73958,4.72916 q 0.36458,-0.84375 0.48958,-1.97917 0.13542,-1.14583 0.13542,-2.74999 0,-1.58333 -0.13542,-2.75 -0.125,-1.16666 -0.5,-1.97916 -0.36458,-0.80208 -1,-1.20833 -0.62499,-0.40625 -1.61458,-0.40625 -0.97916,0 -1.62499,0.40625 -0.63542,0.40625 -1.01042,1.22916 -0.35417,0.77083 -0.48958,2.01042 -0.125,1.23958 -0.125,2.71874 0,1.625 0.11458,2.71875 0.11459,1.09375 0.48958,1.95833 0.34375,0.8125 0.96875,1.23958 0.63542,0.42708 1.67708,0.42708 0.97917,0 1.625,-0.40625 0.64583,-0.40625 1,-1.22916 z"
         id="path120558" />
      <path
         d="m 460.87228,358.74817 h -1.95833 v -6.62499 q 0,-0.75 -0.0729,-1.44791 -0.0625,-0.69792 -0.28125,-1.11458 -0.23958,-0.44792 -0.68749,-0.67709 -0.44792,-0.22916 -1.29167,-0.22916 -0.82291,0 -1.64583,0.41666 -0.82292,0.40625 -1.64583,1.04167 0.0312,0.23958 0.0521,0.5625 0.0208,0.3125 0.0208,0.625 v 7.4479 h -1.95833 v -6.62499 q 0,-0.77083 -0.0729,-1.45833 -0.0625,-0.69791 -0.28125,-1.11458 -0.23958,-0.44792 -0.6875,-0.66667 -0.44792,-0.22916 -1.29166,-0.22916 -0.80209,0 -1.61458,0.39583 -0.80209,0.39583 -1.60417,1.01042 v 8.68748 h -1.95833 v -11.6354 h 1.95833 v 1.29167 q 0.91667,-0.76042 1.82291,-1.1875 0.91667,-0.42708 1.94792,-0.42708 1.1875,0 2.01041,0.5 0.83333,0.5 1.23958,1.38541 1.1875,-1 2.16667,-1.4375 0.97916,-0.44791 2.09374,-0.44791 1.91667,0 2.82292,1.16666 0.91666,1.15625 0.91666,3.23958 z"
         id="path120560" />
      <path
         d="m 481.78892,358.74817 h -1.95833 v -1.29166 q -0.98958,0.78125 -1.89583,1.19791 -0.90625,0.41667 -2,0.41667 -1.83333,0 -2.85416,-1.11458 -1.02083,-1.125 -1.02083,-3.29166 v -7.55208 h 1.95833 v 6.62499 q 0,0.88542 0.0833,1.52083 0.0833,0.625 0.35417,1.07292 0.28124,0.45833 0.72916,0.66667 0.44792,0.20833 1.30208,0.20833 0.76042,0 1.65625,-0.39583 0.90625,-0.39584 1.6875,-1.01042 v -8.68749 h 1.95833 z"
         id="path120562" />
      <path
         d="m 495.88264,352.78985 q 0,1.41666 -0.40625,2.59374 -0.40625,1.16667 -1.14583,1.97917 -0.6875,0.77083 -1.625,1.19791 -0.92708,0.41667 -1.96874,0.41667 -0.90625,0 -1.64583,-0.19792 -0.72917,-0.19791 -1.48958,-0.61458 v 4.87499 h -1.95833 v -15.92706 h 1.95833 v 1.21875 q 0.78125,-0.65625 1.74999,-1.09375 0.97917,-0.44791 2.08333,-0.44791 2.10417,0 3.27083,1.59375 1.17708,1.58333 1.17708,4.40624 z m -2.02083,0.0521 q 0,-2.10416 -0.71875,-3.14583 -0.71874,-1.04166 -2.20833,-1.04166 -0.84374,0 -1.69791,0.36458 -0.85416,0.36458 -1.63541,0.95833 v 6.59374 q 0.83333,0.375 1.42708,0.51042 0.60416,0.13541 1.36458,0.13541 1.63541,0 2.55208,-1.10416 0.91666,-1.10417 0.91666,-3.27083 z"
         id="path120564" />
    </g>
    <g
       aria-label="400m up"
       transform="matrix(0.14796086,-0.11856086,0.11425993,0.14259341,126.21511,158.44092)"
       id="text18399-7-8"
       style="font-size:21.3333px;line-height:1.25;white-space:pre;shape-inside:url(#rect18401-2-5)">
      <path
         d="m 400.16404,354.3836 h -2.30208 v 4.36457 h -1.99999 v -4.36457 h -7.42708 v -2.39583 l 7.51041,-8.74999 h 1.91666 v 9.47915 h 2.30208 z m -4.30207,-1.66667 v -6.99999 l -6.01041,6.99999 z"
         id="path120567" />
      <path
         d="m 413.37236,350.98777 q 0,4.17707 -1.3125,6.1354 -1.30208,1.94792 -4.05208,1.94792 -2.79166,0 -4.08333,-1.97917 -1.28124,-1.97916 -1.28124,-6.08332 0,-4.13541 1.30208,-6.10416 1.30208,-1.97916 4.06249,-1.97916 2.79166,0 4.07291,2.01041 1.29167,2 1.29167,6.05208 z m -2.73958,4.72916 q 0.36458,-0.84375 0.48958,-1.97917 0.13542,-1.14583 0.13542,-2.74999 0,-1.58333 -0.13542,-2.75 -0.125,-1.16666 -0.5,-1.97916 -0.36458,-0.80208 -1,-1.20833 -0.625,-0.40625 -1.61458,-0.40625 -0.97916,0 -1.625,0.40625 -0.63541,0.40625 -1.01041,1.22916 -0.35417,0.77083 -0.48958,2.01042 -0.125,1.23958 -0.125,2.71874 0,1.625 0.11458,2.71875 0.11458,1.09375 0.48958,1.95833 0.34375,0.8125 0.96875,1.23958 0.63542,0.42708 1.67708,0.42708 0.97917,0 1.625,-0.40625 0.64583,-0.40625 1,-1.22916 z"
         id="path120569" />
      <path
         d="m 426.95567,350.98777 q 0,4.17707 -1.3125,6.1354 -1.30208,1.94792 -4.05208,1.94792 -2.79166,0 -4.08332,-1.97917 -1.28125,-1.97916 -1.28125,-6.08332 0,-4.13541 1.30208,-6.10416 1.30208,-1.97916 4.06249,-1.97916 2.79166,0 4.07291,2.01041 1.29167,2 1.29167,6.05208 z m -2.73958,4.72916 q 0.36458,-0.84375 0.48958,-1.97917 0.13542,-1.14583 0.13542,-2.74999 0,-1.58333 -0.13542,-2.75 -0.125,-1.16666 -0.5,-1.97916 -0.36458,-0.80208 -1,-1.20833 -0.625,-0.40625 -1.61458,-0.40625 -0.97916,0 -1.62499,0.40625 -0.63542,0.40625 -1.01042,1.22916 -0.35417,0.77083 -0.48958,2.01042 -0.125,1.23958 -0.125,2.71874 0,1.625 0.11458,2.71875 0.11458,1.09375 0.48958,1.95833 0.34375,0.8125 0.96875,1.23958 0.63542,0.42708 1.67708,0.42708 0.97917,0 1.625,-0.40625 0.64583,-0.40625 1,-1.22916 z"
         id="path120571" />
      <path
         d="m 447.28897,358.74817 h -1.95833 v -6.62499 q 0,-0.75 -0.0729,-1.44791 -0.0625,-0.69792 -0.28125,-1.11458 -0.23958,-0.44792 -0.6875,-0.67709 -0.44791,-0.22916 -1.29166,-0.22916 -0.82292,0 -1.64583,0.41666 -0.82292,0.40625 -1.64583,1.04167 0.0312,0.23958 0.0521,0.5625 0.0208,0.3125 0.0208,0.625 v 7.4479 h -1.95833 v -6.62499 q 0,-0.77083 -0.0729,-1.45833 -0.0625,-0.69791 -0.28125,-1.11458 -0.23959,-0.44792 -0.6875,-0.66667 -0.44792,-0.22916 -1.29167,-0.22916 -0.80208,0 -1.61458,0.39583 -0.80208,0.39583 -1.60416,1.01042 v 8.68748 h -1.95833 v -11.6354 h 1.95833 v 1.29167 q 0.91666,-0.76042 1.82291,-1.1875 0.91667,-0.42708 1.94792,-0.42708 1.18749,0 2.01041,0.5 0.83333,0.5 1.23958,1.38541 1.1875,-1 2.16666,-1.4375 0.97917,-0.44791 2.09375,-0.44791 1.91666,0 2.82291,1.16666 0.91667,1.15625 0.91667,3.23958 z"
         id="path120573" />
      <path
         d="m 468.2056,358.74817 h -1.95833 v -1.29166 q -0.98958,0.78125 -1.89583,1.19791 -0.90625,0.41667 -1.99999,0.41667 -1.83333,0 -2.85417,-1.11458 -1.02083,-1.125 -1.02083,-3.29166 v -7.55208 h 1.95833 v 6.62499 q 0,0.88542 0.0833,1.52083 0.0833,0.625 0.35416,1.07292 0.28125,0.45833 0.72917,0.66667 0.44791,0.20833 1.30208,0.20833 0.76041,0 1.65625,-0.39583 0.90625,-0.39584 1.68749,-1.01042 v -8.68749 h 1.95833 z"
         id="path120575" />
      <path
         d="m 482.29933,352.78985 q 0,1.41666 -0.40625,2.59374 -0.40625,1.16667 -1.14583,1.97917 -0.6875,0.77083 -1.625,1.19791 -0.92708,0.41667 -1.96874,0.41667 -0.90625,0 -1.64584,-0.19792 -0.72916,-0.19791 -1.48958,-0.61458 v 4.87499 h -1.95833 v -15.92706 h 1.95833 v 1.21875 q 0.78125,-0.65625 1.75,-1.09375 0.97917,-0.44791 2.08333,-0.44791 2.10416,0 3.27083,1.59375 1.17708,1.58333 1.17708,4.40624 z m -2.02083,0.0521 q 0,-2.10416 -0.71875,-3.14583 -0.71875,-1.04166 -2.20833,-1.04166 -0.84375,0 -1.69791,0.36458 -0.85417,0.36458 -1.63542,0.95833 v 6.59374 q 0.83334,0.375 1.42708,0.51042 0.60417,0.13541 1.36459,0.13541 1.63541,0 2.55207,-1.10416 0.91667,-1.10417 0.91667,-3.27083 z"
         id="path120577" />
    </g>
    <g
       aria-label="Gourette"
       transform="matrix(0.26458333,0,0,0.26458333,61.743846,47.456203)"
       id="text18399-3"
       style="font-size:21.3333px;line-height:1.25;white-space:pre;shape-inside:url(#rect18401-7)">
      <path
         d="m 402.65362,357.60234 q -1.27083,0.58333 -2.78124,1.02083 -1.5,0.42709 -2.90625,0.42709 -1.8125,0 -3.32291,-0.5 -1.51041,-0.5 -2.57291,-1.5 -1.07292,-1.01042 -1.65625,-2.52083 -0.58333,-1.52083 -0.58333,-3.55208 0,-3.71874 2.16666,-5.86457 2.17708,-2.15625 5.96874,-2.15625 1.32292,0 2.69791,0.32292 1.38542,0.3125 2.97917,1.07291 v 2.44791 h -0.1875 q -0.32292,-0.25 -0.9375,-0.65624 -0.61459,-0.40625 -1.20833,-0.67709 -0.71875,-0.32291 -1.63542,-0.53125 -0.90625,-0.21875 -2.0625,-0.21875 -2.60416,0 -4.12499,1.67709 -1.51041,1.66666 -1.51041,4.52082 0,3.01041 1.58333,4.68749 1.58333,1.66667 4.31249,1.66667 1,0 1.98958,-0.19792 1,-0.19791 1.75,-0.51041 v -3.80208 h -4.15624 v -1.8125 h 6.1979 z"
         id="path120580" />
      <path
         d="m 416.01819,352.93568 q 0,2.84375 -1.45834,4.48958 -1.45833,1.64583 -3.90624,1.64583 -2.46875,0 -3.92708,-1.64583 -1.44791,-1.64583 -1.44791,-4.48958 0,-2.84374 1.44791,-4.48957 1.45833,-1.65625 3.92708,-1.65625 2.44791,0 3.90624,1.65625 1.45834,1.64583 1.45834,4.48957 z m -2.02084,0 q 0,-2.26041 -0.88541,-3.35416 -0.88542,-1.10416 -2.45833,-1.10416 -1.59375,0 -2.47916,1.10416 -0.875,1.09375 -0.875,3.35416 0,2.1875 0.88541,3.32291 0.88542,1.125 2.46875,1.125 1.5625,0 2.44791,-1.11458 0.89583,-1.125 0.89583,-3.33333 z"
         id="path120582" />
      <path
         d="m 428.70567,358.74817 h -1.95834 v -1.29166 q -0.98958,0.78125 -1.89583,1.19791 -0.90624,0.41667 -1.99999,0.41667 -1.83333,0 -2.85416,-1.11458 -1.02084,-1.125 -1.02084,-3.29166 v -7.55208 h 1.95833 v 6.62499 q 0,0.88542 0.0833,1.52083 0.0833,0.625 0.35416,1.07292 0.28125,0.45833 0.72917,0.66667 0.44791,0.20833 1.30208,0.20833 0.76042,0 1.65625,-0.39583 0.90625,-0.39584 1.68749,-1.01042 v -8.68749 h 1.95834 z"
         id="path120584" />
      <path
         d="m 439.82023,349.24819 h -0.10417 q -0.4375,-0.10417 -0.85416,-0.14584 -0.40625,-0.0521 -0.96875,-0.0521 -0.90625,0 -1.75,0.40625 -0.84375,0.39583 -1.625,1.03125 v 8.2604 h -1.95833 v -11.6354 h 1.95833 v 1.71875 q 1.16667,-0.9375 2.05208,-1.32291 0.89584,-0.39584 1.82292,-0.39584 0.51041,0 0.73958,0.0312 0.22917,0.0208 0.6875,0.0937 z"
         id="path120586" />
      <path
         d="m 451.42438,353.1336 h -8.5729 q 0,1.07291 0.32291,1.87499 0.32292,0.79167 0.88542,1.30209 0.54166,0.5 1.28125,0.74999 0.75,0.25 1.64583,0.25 1.1875,0 2.38541,-0.46874 1.20833,-0.47917 1.71875,-0.9375 h 0.10416 v 2.13541 q -0.98958,0.41667 -2.02083,0.69792 -1.03124,0.28125 -2.16666,0.28125 -2.89583,0 -4.52083,-1.5625 -1.62499,-1.57292 -1.62499,-4.45833 0,-2.85416 1.55208,-4.53124 1.5625,-1.67708 4.10416,-1.67708 2.35416,0 3.62499,1.375 1.28125,1.37499 1.28125,3.90624 z m -1.90625,-1.5 q -0.0104,-1.54166 -0.78125,-2.38541 -0.76041,-0.84375 -2.32291,-0.84375 -1.57291,0 -2.51041,0.92708 -0.92708,0.92708 -1.05208,2.30208 z"
         id="path120588" />
      <path
         d="m 460.43478,358.64401 q -0.55208,0.14583 -1.20833,0.23958 -0.64583,0.0937 -1.15625,0.0937 -1.78125,0 -2.70833,-0.95833 -0.92708,-0.95834 -0.92708,-3.07292 v -6.18749 h -1.32292 v -1.64583 h 1.32292 v -3.34374 h 1.95833 v 3.34374 h 4.04166 v 1.64583 h -4.04166 v 5.30208 q 0,0.91666 0.0417,1.4375 0.0417,0.51041 0.29166,0.95833 0.22917,0.41667 0.625,0.61458 0.40625,0.1875 1.22917,0.1875 0.47916,0 0.99999,-0.13542 0.52084,-0.14583 0.75,-0.23958 h 0.10417 z"
         id="path120590" />
      <path
         d="m 468.85144,358.64401 q -0.55209,0.14583 -1.20834,0.23958 -0.64583,0.0937 -1.15624,0.0937 -1.78125,0 -2.70833,-0.95833 -0.92709,-0.95834 -0.92709,-3.07292 v -6.18749 h -1.32291 v -1.64583 h 1.32291 v -3.34374 h 1.95834 v 3.34374 h 4.04166 v 1.64583 h -4.04166 v 5.30208 q 0,0.91666 0.0417,1.4375 0.0417,0.51041 0.29167,0.95833 0.22916,0.41667 0.625,0.61458 0.40625,0.1875 1.22916,0.1875 0.47917,0 1,-0.13542 0.52083,-0.14583 0.75,-0.23958 h 0.10417 z"
         id="path120592" />
      <path
         d="m 480.966,353.1336 h -8.5729 q 0,1.07291 0.32292,1.87499 0.32291,0.79167 0.88541,1.30209 0.54167,0.5 1.28125,0.74999 0.75,0.25 1.64583,0.25 1.1875,0 2.38541,-0.46874 1.20833,-0.47917 1.71875,-0.9375 h 0.10417 v 2.13541 q -0.98959,0.41667 -2.02083,0.69792 -1.03125,0.28125 -2.16667,0.28125 -2.89583,0 -4.52082,-1.5625 -1.625,-1.57292 -1.625,-4.45833 0,-2.85416 1.55208,-4.53124 1.5625,-1.67708 4.10416,-1.67708 2.35416,0 3.62499,1.375 1.28125,1.37499 1.28125,3.90624 z m -1.90624,-1.5 q -0.0104,-1.54166 -0.78125,-2.38541 -0.76042,-0.84375 -2.32292,-0.84375 -1.57291,0 -2.51041,0.92708 -0.92708,0.92708 -1.05208,2.30208 z"
         id="path120594" />
    </g>
    <g
       aria-label="Col du Tortes"
       transform="matrix(0.26458333,0,0,0.26458333,78.494853,37.93726)"
       id="text18399-3-4"
       style="font-size:18.6667px;line-height:1.25;white-space:pre;shape-inside:url(#rect18401-7-8)">
      <path
         d="m 399.93752,355.33098 q -0.5013,0.21875 -0.91146,0.41015 -0.40104,0.19141 -1.05729,0.40105 -0.55599,0.17317 -1.21224,0.29166 -0.64714,0.12761 -1.431,0.12761 -1.47656,0 -2.6888,-0.41016 -1.20313,-0.41927 -2.09636,-1.30339 -0.875,-0.86588 -1.36719,-2.19662 -0.49219,-1.33984 -0.49219,-3.10807 0,-1.67709 0.47396,-2.99871 0.47396,-1.32162 1.36719,-2.23308 0.86589,-0.88411 2.08724,-1.34896 1.23047,-0.46484 2.72527,-0.46484 1.09375,0 2.17839,0.26432 1.09375,0.26433 2.42448,0.92969 v 2.14193 h -0.13672 q -1.12109,-0.9388 -2.22396,-1.36719 -1.10287,-0.42838 -2.36068,-0.42838 -1.02995,0 -1.85938,0.33724 -0.82031,0.32812 -1.46745,1.02995 -0.62891,0.68359 -0.98438,1.73177 -0.34635,1.03907 -0.34635,2.40626 0,1.43099 0.38281,2.46094 0.39193,1.02995 1.00261,1.67708 0.63802,0.67448 1.48568,1.00261 0.85677,0.31901 1.80469,0.31901 1.30339,0 2.44271,-0.44661 1.13933,-0.44662 2.13282,-1.33985 h 0.1276 z"
         id="path120597" />
      <path
         d="m 411.04822,351.22941 q 0,2.48828 -1.27604,3.92839 -1.27605,1.44011 -3.41798,1.44011 -2.16016,0 -3.4362,-1.44011 -1.26693,-1.44011 -1.26693,-3.92839 0,-2.48829 1.26693,-3.9284 1.27604,-1.44922 3.4362,-1.44922 2.14193,0 3.41798,1.44922 1.27604,1.44011 1.27604,3.9284 z m -1.76823,0 q 0,-1.97787 -0.77474,-2.9349 -0.77475,-0.96615 -2.15105,-0.96615 -1.39453,0 -2.16927,0.96615 -0.76563,0.95703 -0.76563,2.9349 0,1.91406 0.77474,2.90755 0.77474,0.98438 2.16016,0.98438 1.36719,0 2.14193,-0.97526 0.78386,-0.98438 0.78386,-2.91667 z"
         id="path120599" />
      <path
         d="m 415.44146,356.31535 h -1.71355 v -14.18231 h 1.71355 z"
         id="path120601" />
      <path
         d="m 433.67066,356.31535 h -1.71355 v -1.06641 q -0.73828,0.63803 -1.54037,0.9935 -0.80208,0.35547 -1.74088,0.35547 -1.82292,0 -2.89845,-1.40365 -1.06641,-1.40365 -1.06641,-3.89194 0,-1.29427 0.36459,-2.30599 0.3737,-1.01172 1.0026,-1.72266 0.6198,-0.69271 1.44011,-1.05729 0.82943,-0.36459 1.71355,-0.36459 0.80208,0 1.42187,0.17318 0.6198,0.16406 1.30339,0.51953 v -4.41146 h 1.71355 z m -1.71355,-2.50651 v -5.84246 q -0.69271,-0.3099 -1.23958,-0.42839 -0.54688,-0.11849 -1.19402,-0.11849 -1.4401,0 -2.24219,1.00261 -0.80208,1.00261 -0.80208,2.84375 0,1.81381 0.61979,2.76173 0.61979,0.9388 1.98698,0.9388 0.72917,0 1.47657,-0.31901 0.74739,-0.32812 1.39453,-0.83854 z"
         id="path120603" />
      <path
         d="m 445.48318,356.31535 h -1.71355 v -1.13021 q -0.86588,0.6836 -1.65885,1.04818 -0.79297,0.36459 -1.75001,0.36459 -1.60417,0 -2.4974,-0.97527 -0.89323,-0.98437 -0.89323,-2.88021 v -6.60809 h 1.71355 v 5.79689 q 0,0.77474 0.0729,1.33073 0.0729,0.54688 0.3099,0.93881 0.24609,0.40104 0.63802,0.58333 0.39193,0.18229 1.13933,0.18229 0.66536,0 1.44922,-0.34635 0.79297,-0.34636 1.47656,-0.88412 v -7.60158 h 1.71355 z"
         id="path120605" />
      <path
         d="m 465.23451,344.34788 h -4.84896 v 11.96747 h -1.8047 v -11.96747 h -4.84896 v -1.60417 h 11.50262 z"
         id="path120607" />
      <path
         d="m 475.61605,351.22941 q 0,2.48828 -1.27605,3.92839 -1.27604,1.44011 -3.41797,1.44011 -2.16016,0 -3.43621,-1.44011 -1.26693,-1.44011 -1.26693,-3.92839 0,-2.48829 1.26693,-3.9284 1.27605,-1.44922 3.43621,-1.44922 2.14193,0 3.41797,1.44922 1.27605,1.44011 1.27605,3.9284 z m -1.76824,0 q 0,-1.97787 -0.77474,-2.9349 -0.77474,-0.96615 -2.15104,-0.96615 -1.39454,0 -2.16928,0.96615 -0.76562,0.95703 -0.76562,2.9349 0,1.91406 0.77474,2.90755 0.77474,0.98438 2.16016,0.98438 1.36719,0 2.14193,-0.97526 0.78385,-0.98438 0.78385,-2.91667 z"
         id="path120609" />
      <path
         d="m 484.63039,348.00284 h -0.0911 q -0.38281,-0.0911 -0.7474,-0.12761 -0.35547,-0.0456 -0.84766,-0.0456 -0.79297,0 -1.53125,0.35547 -0.73828,0.34635 -1.42188,0.90235 v 7.22787 h -1.71354 v -10.18101 h 1.71354 v 1.50391 q 1.02084,-0.82031 1.79558,-1.15755 0.78386,-0.34636 1.59506,-0.34636 0.44661,0 0.64713,0.0274 0.20052,0.0182 0.60157,0.082 z"
         id="path120611" />
      <path
         d="m 491.54836,356.22421 q -0.48307,0.1276 -1.05729,0.20963 -0.56511,0.082 -1.01172,0.082 -1.5586,0 -2.3698,-0.83854 -0.8112,-0.83854 -0.8112,-2.68881 v -5.41407 h -1.15755 v -1.44011 h 1.15755 v -2.92578 h 1.71355 v 2.92578 h 3.53646 v 1.44011 h -3.53646 v 4.63933 q 0,0.80209 0.0365,1.25782 0.0365,0.44661 0.25521,0.83854 0.20052,0.36458 0.54688,0.53776 0.35547,0.16407 1.07552,0.16407 0.41927,0 0.875,-0.11849 0.45573,-0.12761 0.65625,-0.20964 h 0.0912 z"
         id="path120613" />
      <path
         d="m 502.14864,351.40258 h -7.50131 q 0,0.93881 0.28255,1.64063 0.28255,0.69271 0.77474,1.13933 0.47396,0.4375 1.1211,0.65625 0.65625,0.21875 1.4401,0.21875 1.03907,0 2.08725,-0.41016 1.05729,-0.41927 1.50391,-0.82031 h 0.0911 v 1.86849 q -0.86588,0.36458 -1.76823,0.61068 -0.90234,0.24609 -1.89584,0.24609 -2.53385,0 -3.95573,-1.36719 -1.42188,-1.3763 -1.42188,-3.90105 0,-2.4974 1.35808,-3.96485 1.36719,-1.46745 3.59115,-1.46745 2.0599,0 3.17188,1.20313 1.12109,1.20313 1.12109,3.41797 z m -1.66797,-1.3125 q -0.009,-1.34896 -0.68359,-2.08724 -0.66537,-0.73828 -2.03256,-0.73828 -1.3763,0 -2.19662,0.81119 -0.8112,0.8112 -0.92057,2.01433 z"
         id="path120615" />
      <path
         d="m 512.01976,353.38045 q 0,1.39454 -1.15756,2.28777 -1.14844,0.89323 -3.14454,0.89323 -1.13021,0 -2.07812,-0.26433 -0.93881,-0.27343 -1.57683,-0.59245 v -1.92318 h 0.0912 q 0.8112,0.61068 1.80469,0.97527 0.99349,0.35547 1.90495,0.35547 1.13021,0 1.76823,-0.36459 0.63802,-0.36458 0.63802,-1.14844 0,-0.60156 -0.34635,-0.91146 -0.34636,-0.30989 -1.33073,-0.52864 -0.36459,-0.082 -0.95704,-0.19141 -0.58333,-0.10938 -1.0664,-0.23698 -1.33985,-0.35547 -1.90496,-1.03907 -0.55599,-0.6927 -0.55599,-1.69531 0,-0.62891 0.25521,-1.1849 0.26433,-0.55599 0.79297,-0.99349 0.51042,-0.42839 1.29428,-0.67448 0.79297,-0.25521 1.76823,-0.25521 0.91146,0 1.84115,0.22787 0.9388,0.21875 1.55859,0.53776 v 1.83203 h -0.0911 q -0.65625,-0.48307 -1.59506,-0.8112 -0.9388,-0.33724 -1.84115,-0.33724 -0.9388,0 -1.58594,0.36459 -0.64713,0.35547 -0.64713,1.0664 0,0.62891 0.39192,0.94792 0.38282,0.31901 1.23959,0.51953 0.47396,0.10938 1.05729,0.21876 0.59245,0.10937 0.98438,0.20052 1.19401,0.27343 1.84115,0.9388 0.64714,0.67448 0.64714,1.78646 z"
         id="path120617" />
    </g>
    <g
       aria-label="Col"
       transform="matrix(0.26458333,0,0,0.26458333,133.49955,46.240258)"
       id="text18399-3-4-8"
       style="font-size:18.6667px;line-height:1.25;white-space:pre;shape-inside:url(#rect18401-7-8-4)">
      <path
         d="m 399.93752,355.33098 q -0.5013,0.21875 -0.91146,0.41015 -0.40104,0.19141 -1.05729,0.40105 -0.55599,0.17317 -1.21224,0.29166 -0.64714,0.12761 -1.431,0.12761 -1.47656,0 -2.6888,-0.41016 -1.20313,-0.41927 -2.09636,-1.30339 -0.875,-0.86588 -1.36719,-2.19662 -0.49219,-1.33984 -0.49219,-3.10807 0,-1.67709 0.47396,-2.99871 0.47396,-1.32162 1.36719,-2.23308 0.86589,-0.88411 2.08724,-1.34896 1.23047,-0.46484 2.72527,-0.46484 1.09375,0 2.17839,0.26432 1.09375,0.26433 2.42448,0.92969 v 2.14193 h -0.13672 q -1.12109,-0.9388 -2.22396,-1.36719 -1.10287,-0.42838 -2.36068,-0.42838 -1.02995,0 -1.85938,0.33724 -0.82031,0.32812 -1.46745,1.02995 -0.62891,0.68359 -0.98438,1.73177 -0.34635,1.03907 -0.34635,2.40626 0,1.43099 0.38281,2.46094 0.39193,1.02995 1.00261,1.67708 0.63802,0.67448 1.48568,1.00261 0.85677,0.31901 1.80469,0.31901 1.30339,0 2.44271,-0.44661 1.13933,-0.44662 2.13282,-1.33985 h 0.1276 z"
         id="path120620" />
      <path
         d="m 411.04822,351.22941 q 0,2.48828 -1.27604,3.92839 -1.27605,1.44011 -3.41798,1.44011 -2.16016,0 -3.4362,-1.44011 -1.26693,-1.44011 -1.26693,-3.92839 0,-2.48829 1.26693,-3.9284 1.27604,-1.44922 3.4362,-1.44922 2.14193,0 3.41798,1.44922 1.27604,1.44011 1.27604,3.9284 z m -1.76823,0 q 0,-1.97787 -0.77474,-2.9349 -0.77475,-0.96615 -2.15105,-0.96615 -1.39453,0 -2.16927,0.96615 -0.76563,0.95703 -0.76563,2.9349 0,1.91406 0.77474,2.90755 0.77474,0.98438 2.16016,0.98438 1.36719,0 2.14193,-0.97526 0.78386,-0.98438 0.78386,-2.91667 z"
         id="path120622" />
      <path
         d="m 415.44146,356.31535 h -1.71355 v -14.18231 h 1.71355 z"
         id="path120624" />
    </g>
    <path
       id="rect39359"
       style="fill:#d63031;stroke:#ecf0f1;stroke-width:0;stroke-linecap:round"
       transform="scale(-1,1)"
       d="m -124.77903,117.00724 h 0.6702 v 54.69083 h -0.6702 z" />
    <path
       id="rect39359-8"
       style="fill:#d63031;stroke:#ecf0f1;stroke-width:0;stroke-linecap:round"
       transform="scale(-1,1)"
       d="m -175.12888,148.98631 h 0.6702 v 23.22333 h -0.6702 z" />
    <path
       id="rect39359-8-4"
       style="fill:#d63031;stroke:#ecf0f1;stroke-width:0;stroke-linecap:round"
       transform="scale(-1,1)"
       d="m -197.68297,136.1358 h 0.6702 v 36.76167 h -0.6702 z" />
    <path
       id="rect39359-8-4-0"
       style="fill:#d63031;stroke:#ecf0f1;stroke-width:0;stroke-linecap:round"
       transform="scale(-1,1)"
       d="m -240.96887,143.23741 h 0.67019 v 29.84004 h -0.67019 z" />
    <g
       aria-label="13.5km"
       transform="matrix(0.26458333,0,0,0.26458333,15.123914,-5.3563864)"
       id="text68805"
       style="font-size:24px;line-height:1.25;white-space:pre;shape-inside:url(#rect68807)">
      <path
         d="m 381.86914,697.11272 h -9.44531 v -1.78125 h 3.63281 v -11.69531 h -3.63281 v -1.59375 q 0.73828,0 1.58203,-0.11719 0.84375,-0.1289 1.27734,-0.36328 0.53907,-0.29297 0.84375,-0.73828 0.31641,-0.45703 0.36328,-1.21875 h 1.81641 v 15.72656 h 3.5625 z"
         id="path120631" />
      <path
         d="m 396.61133,688.71038 q 0.5625,0.50391 0.92578,1.26563 0.36328,0.76171 0.36328,1.96875 0,1.19531 -0.43359,2.1914 -0.4336,0.9961 -1.21875,1.73438 -0.87891,0.82031 -2.07422,1.21875 -1.1836,0.38672 -2.60156,0.38672 -1.45313,0 -2.85938,-0.35157 -1.40625,-0.33984 -2.30859,-0.75 v -2.44922 h 0.17578 q 0.99609,0.65625 2.34375,1.08985 1.34765,0.43359 2.60156,0.43359 0.73828,0 1.57031,-0.24609 0.83203,-0.2461 1.34766,-0.72656 0.53906,-0.51563 0.79687,-1.13672 0.26954,-0.6211 0.26954,-1.57032 0,-0.9375 -0.30469,-1.54687 -0.29297,-0.62109 -0.82031,-0.97266 -0.52735,-0.36328 -1.27735,-0.49218 -0.75,-0.14063 -1.61719,-0.14063 h -1.05468 v -1.94531 h 0.82031 q 1.78125,0 2.83594,-0.73828 1.0664,-0.75 1.0664,-2.17969 0,-0.63281 -0.26953,-1.10156 -0.26953,-0.48047 -0.75,-0.78516 -0.5039,-0.30469 -1.07812,-0.42187 -0.57422,-0.11719 -1.30078,-0.11719 -1.11329,0 -2.36719,0.39844 -1.25391,0.39843 -2.36719,1.125 h -0.11719 v -2.44922 q 0.83203,-0.41016 2.21485,-0.75 1.39453,-0.35157 2.69531,-0.35157 1.27734,0 2.25,0.23438 0.97266,0.23437 1.75781,0.75 0.84375,0.5625 1.27735,1.35937 0.43359,0.79688 0.43359,1.86329 0,1.45312 -1.03125,2.54296 -1.01953,1.07813 -2.41406,1.35938 v 0.16406 q 0.5625,0.0937 1.28906,0.39844 0.72656,0.29297 1.23047,0.73828 z"
         id="path120633" />
      <path
         d="m 405.49414,697.11272 h -2.80078 v -3.33984 h 2.80078 z"
         id="path120635" />
      <path
         d="m 422.00586,691.56976 q 0,1.21875 -0.44531,2.33203 -0.44532,1.11328 -1.21875,1.875 -0.84375,0.82031 -2.01563,1.26562 -1.16015,0.4336 -2.69531,0.4336 -1.42969,0 -2.75391,-0.30469 -1.32422,-0.29297 -2.23828,-0.71485 v -2.47265 h 0.16406 q 0.96094,0.60937 2.25,1.04297 1.28907,0.42187 2.53125,0.42187 0.83204,0 1.60547,-0.23437 0.78516,-0.23438 1.39453,-0.82032 0.51563,-0.5039 0.77344,-1.20703 0.26953,-0.70312 0.26953,-1.6289 0,-0.90235 -0.3164,-1.52344 -0.30469,-0.62109 -0.85547,-0.99609 -0.60938,-0.44532 -1.48828,-0.6211 -0.86719,-0.1875 -1.94532,-0.1875 -1.03125,0 -1.99218,0.14063 -0.94922,0.14062 -1.64063,0.28125 v -8.98828 h 10.5 v 2.05078 h -8.23828 v 4.64062 q 0.50391,-0.0469 1.03125,-0.0703 0.52734,-0.0234 0.91406,-0.0234 1.41797,0 2.48438,0.2461 1.0664,0.23437 1.95703,0.84375 0.9375,0.64453 1.45312,1.66406 0.51563,1.01953 0.51563,2.55469 z"
         id="path120637" />
      <path
         d="m 437.7793,697.11272 h -2.90625 l -5.25,-5.73046 -1.42969,1.35937 v 4.37109 h -2.20313 v -18.23437 h 2.20313 v 11.69531 l 6.36328,-6.55078 h 2.77734 l -6.08203,6.04688 z"
         id="path120639" />
      <path
         d="m 459.20117,697.11272 h -2.20312 v -7.45312 q 0,-0.84375 -0.082,-1.62891 -0.0703,-0.78515 -0.31641,-1.2539 -0.26953,-0.50391 -0.77344,-0.76172 -0.5039,-0.25781 -1.45312,-0.25781 -0.92578,0 -1.85157,0.46875 -0.92578,0.45703 -1.85156,1.17187 0.0352,0.26953 0.0586,0.63281 0.0234,0.35157 0.0234,0.70313 v 8.3789 h -2.20312 v -7.45312 q 0,-0.86719 -0.082,-1.64063 -0.0703,-0.78515 -0.31641,-1.2539 -0.26953,-0.50391 -0.77344,-0.75 -0.5039,-0.25781 -1.45312,-0.25781 -0.90235,0 -1.81641,0.44531 -0.90234,0.44531 -1.80469,1.13672 v 9.77343 h -2.20312 v -13.08984 h 2.20312 v 1.45313 q 1.03125,-0.85547 2.05079,-1.33594 1.03125,-0.48047 2.1914,-0.48047 1.33594,0 2.26172,0.5625 0.9375,0.5625 1.39453,1.55859 1.33594,-1.125 2.4375,-1.61718 1.10156,-0.50391 2.35547,-0.50391 2.15625,0 3.17578,1.3125 1.03125,1.30078 1.03125,3.64453 z"
         id="path120641" />
    </g>
    <g
       aria-label="19.2km"
       transform="matrix(0.26458333,0,0,0.26458333,65.281375,-4.6892965)"
       id="text68805-0"
       style="font-size:24px;line-height:1.25;white-space:pre;shape-inside:url(#rect68807-1)">
      <path
         d="m 381.86914,697.11272 h -9.44531 v -1.78125 h 3.63281 v -11.69531 h -3.63281 v -1.59375 q 0.73828,0 1.58203,-0.11719 0.84375,-0.1289 1.27734,-0.36328 0.53907,-0.29297 0.84375,-0.73828 0.31641,-0.45703 0.36328,-1.21875 h 1.81641 v 15.72656 h 3.5625 z"
         id="path120644" />
      <path
         d="m 398.12305,687.33929 q 0,2.28515 -0.52735,4.14843 -0.51562,1.86329 -1.57031,3.17579 -1.06641,1.33593 -2.67187,2.0625 -1.60547,0.72656 -3.77344,0.72656 -0.60938,0 -1.14844,-0.0703 -0.53906,-0.0586 -0.96094,-0.19922 v -2.23828 h 0.11719 q 0.33984,0.17578 0.96094,0.33984 0.62109,0.15234 1.38281,0.15234 2.58984,0 4.05469,-1.54687 1.47656,-1.5586 1.71094,-4.28906 -1.08985,0.65625 -2.05079,0.9375 -0.96093,0.28125 -2.09765,0.28125 -1.07813,0 -1.95703,-0.21094 -0.86719,-0.21094 -1.7461,-0.82031 -1.03125,-0.71485 -1.55859,-1.81641 -0.51563,-1.10156 -0.51563,-2.63672 0,-2.67187 1.75782,-4.34766 1.75781,-1.67578 4.28906,-1.67578 1.26562,0 2.34375,0.39844 1.07812,0.38672 1.88672,1.17188 0.99609,0.97265 1.53515,2.50781 0.53907,1.52344 0.53907,3.94922 z m -2.36719,-0.50391 q 0,-1.81641 -0.375,-2.91797 -0.375,-1.10156 -1.03125,-1.71094 -0.55078,-0.52734 -1.18359,-0.75 -0.63282,-0.23437 -1.3711,-0.23437 -1.6875,0 -2.67187,1.05469 -0.97266,1.05468 -0.97266,2.96484 0,1.11328 0.31641,1.81641 0.3164,0.70312 1.0664,1.23047 0.52735,0.36328 1.16016,0.49218 0.63281,0.11719 1.40625,0.11719 0.91406,0 1.85156,-0.24609 0.9375,-0.2461 1.75781,-0.71485 0.0117,-0.24609 0.0234,-0.48047 0.0234,-0.24609 0.0234,-0.62109 z"
         id="path120646" />
      <path
         d="m 405.49414,697.11272 h -2.80078 v -3.33984 h 2.80078 z"
         id="path120648" />
      <path
         d="m 422.14648,697.11272 h -11.8125 v -2.44921 q 1.23047,-1.05469 2.46094,-2.10938 1.24219,-1.05469 2.3086,-2.09766 2.25,-2.17968 3.08203,-3.45703 0.83203,-1.28906 0.83203,-2.77734 0,-1.35938 -0.90235,-2.12109 -0.89062,-0.77344 -2.49609,-0.77344 -1.06641,0 -2.30859,0.375 -1.24219,0.375 -2.42578,1.14844 h -0.11719 v -2.46094 q 0.83203,-0.41016 2.21484,-0.75 1.39453,-0.33985 2.69531,-0.33985 2.6836,0 4.20704,1.30079 1.52343,1.28906 1.52343,3.5039 0,0.9961 -0.25781,1.86328 -0.24609,0.85547 -0.73828,1.62891 -0.45703,0.72656 -1.07813,1.42969 -0.60937,0.70312 -1.48828,1.55859 -1.2539,1.23047 -2.58984,2.39063 -1.33594,1.14843 -2.49609,2.13281 h 9.38671 z"
         id="path120650" />
      <path
         d="m 437.7793,697.11272 h -2.90625 l -5.25,-5.73046 -1.42969,1.35937 v 4.37109 h -2.20313 v -18.23437 h 2.20313 v 11.69531 l 6.36328,-6.55078 h 2.77734 l -6.08203,6.04688 z"
         id="path120652" />
      <path
         d="m 459.20117,697.11272 h -2.20312 v -7.45312 q 0,-0.84375 -0.082,-1.62891 -0.0703,-0.78515 -0.31641,-1.2539 -0.26953,-0.50391 -0.77344,-0.76172 -0.5039,-0.25781 -1.45312,-0.25781 -0.92578,0 -1.85157,0.46875 -0.92578,0.45703 -1.85156,1.17187 0.0352,0.26953 0.0586,0.63281 0.0234,0.35157 0.0234,0.70313 v 8.3789 h -2.20312 v -7.45312 q 0,-0.86719 -0.082,-1.64063 -0.0703,-0.78515 -0.31641,-1.2539 -0.26953,-0.50391 -0.77344,-0.75 -0.5039,-0.25781 -1.45312,-0.25781 -0.90235,0 -1.81641,0.44531 -0.90234,0.44531 -1.80469,1.13672 v 9.77343 h -2.20312 v -13.08984 h 2.20312 v 1.45313 q 1.03125,-0.85547 2.05079,-1.33594 1.03125,-0.48047 2.1914,-0.48047 1.33594,0 2.26172,0.5625 0.9375,0.5625 1.39453,1.55859 1.33594,-1.125 2.4375,-1.61718 1.10156,-0.50391 2.35547,-0.50391 2.15625,0 3.17578,1.3125 1.03125,1.30078 1.03125,3.64453 z"
         id="path120654" />
    </g>
    <g
       aria-label="26km"
       transform="matrix(0.26458333,0,0,0.26458333,134.62353,-5.0012774)"
       id="text68805-0-1"
       style="font-size:24px;line-height:1.25;white-space:pre;shape-inside:url(#rect68807-1-6)">
      <path
         d="m 382.86523,697.11272 h -11.8125 v -2.44921 q 1.23047,-1.05469 2.46094,-2.10938 1.24219,-1.05469 2.3086,-2.09766 2.25,-2.17968 3.08203,-3.45703 0.83203,-1.28906 0.83203,-2.77734 0,-1.35938 -0.90235,-2.12109 -0.89062,-0.77344 -2.49609,-0.77344 -1.06641,0 -2.30859,0.375 -1.24219,0.375 -2.42578,1.14844 h -0.11719 v -2.46094 q 0.83203,-0.41016 2.21484,-0.75 1.39453,-0.33985 2.69531,-0.33985 2.6836,0 4.20704,1.30079 1.52343,1.28906 1.52343,3.5039 0,0.9961 -0.25781,1.86328 -0.24609,0.85547 -0.73828,1.62891 -0.45703,0.72656 -1.07813,1.42969 -0.60937,0.70312 -1.48828,1.55859 -1.2539,1.23047 -2.58984,2.39063 -1.33594,1.14843 -2.49609,2.13281 h 9.38671 z"
         id="path120657" />
      <path
         d="m 398.4043,691.45257 q 0,2.66015 -1.75782,4.34765 -1.74609,1.67579 -4.28906,1.67579 -1.28906,0 -2.34375,-0.39844 -1.05469,-0.39844 -1.86328,-1.1836 -1.00781,-0.97265 -1.55859,-2.57812 -0.53907,-1.60547 -0.53907,-3.86719 0,-2.32031 0.49219,-4.11328 0.50391,-1.79297 1.59375,-3.1875 1.03125,-1.32422 2.66016,-2.0625 1.6289,-0.75 3.79687,-0.75 0.69141,0 1.16016,0.0586 0.46875,0.0586 0.94922,0.21094 v 2.23828 h -0.11719 q -0.32812,-0.17578 -0.99609,-0.32812 -0.65625,-0.16406 -1.34766,-0.16406 -2.51953,0 -4.01953,1.58203 -1.5,1.57031 -1.74609,4.2539 0.98437,-0.59765 1.93359,-0.90234 0.96094,-0.31641 2.21484,-0.31641 1.11328,0 1.95703,0.21094 0.85547,0.19922 1.7461,0.82031 1.03125,0.71485 1.54687,1.80469 0.52735,1.08984 0.52735,2.64844 z m -2.37891,0.0937 q 0,-1.08985 -0.32812,-1.80469 -0.31641,-0.71484 -1.05469,-1.24219 -0.53906,-0.375 -1.19531,-0.49218 -0.65625,-0.11719 -1.3711,-0.11719 -0.99609,0 -1.85156,0.23437 -0.85547,0.23438 -1.75781,0.72657 -0.0234,0.25781 -0.0352,0.5039 -0.0117,0.23438 -0.0117,0.59766 0,1.85156 0.375,2.92969 0.38672,1.0664 1.05469,1.6875 0.53906,0.51562 1.16016,0.76171 0.63281,0.23438 1.37109,0.23438 1.69922,0 2.67187,-1.03125 0.97266,-1.04297 0.97266,-2.98828 z"
         id="path120659" />
      <path
         d="m 413.7793,697.11272 h -2.90625 l -5.25,-5.73046 -1.42969,1.35937 v 4.37109 h -2.20313 v -18.23437 h 2.20313 v 11.69531 l 6.36328,-6.55078 h 2.77734 l -6.08203,6.04688 z"
         id="path120661" />
      <path
         d="m 435.20117,697.11272 h -2.20312 v -7.45312 q 0,-0.84375 -0.082,-1.62891 -0.0703,-0.78515 -0.31641,-1.2539 -0.26953,-0.50391 -0.77344,-0.76172 -0.5039,-0.25781 -1.45312,-0.25781 -0.92578,0 -1.85157,0.46875 -0.92578,0.45703 -1.85156,1.17187 0.0352,0.26953 0.0586,0.63281 0.0234,0.35157 0.0234,0.70313 v 8.3789 h -2.20312 v -7.45312 q 0,-0.86719 -0.082,-1.64063 -0.0703,-0.78515 -0.31641,-1.2539 -0.26953,-0.50391 -0.77344,-0.75 -0.5039,-0.25781 -1.45312,-0.25781 -0.90235,0 -1.81641,0.44531 -0.90234,0.44531 -1.80469,1.13672 v 9.77343 h -2.20312 v -13.08984 h 2.20312 v 1.45313 q 1.03125,-0.85547 2.05079,-1.33594 1.03125,-0.48047 2.1914,-0.48047 1.33594,0 2.26172,0.5625 0.9375,0.5625 1.39453,1.55859 1.33594,-1.125 2.4375,-1.61718 1.10156,-0.50391 2.35547,-0.50391 2.15625,0 3.17578,1.3125 1.03125,1.30078 1.03125,3.64453 z"
         id="path120663" />
    </g>
    <g
       aria-label="Les Gabizos Skyrace
31km / 2400m d+
19.2miles / 7874ft up"
       transform="matrix(0.26458333,0,0,0.26458333,17.869008,6.2153073)"
       id="text83280"
       style="font-size:48px;line-height:1.25;text-align:center;text-anchor:middle;white-space:pre;shape-inside:url(#rect83282)">
      <path
         d="m 351.91234,189.311 h 5.28 v 28.8 h 8.688 v 4.8 h -13.968 z"
         style="font-family:'Bebas Neue';-inkscape-font-specification:'Bebas Neue'"
         id="path120666" />
      <path
         d="m 368.41234,189.311 h 14.4 v 4.8 h -9.12 v 8.88 h 7.248 v 4.8 h -7.248 v 10.32 h 9.12 v 4.8 h -14.4 z"
         style="font-family:'Bebas Neue';-inkscape-font-specification:'Bebas Neue'"
         id="path120668" />
      <path
         d="m 392.80759,223.391 q -3.84,0 -5.808,-2.16 -1.968,-2.208 -1.968,-6.288 v -1.92 h 4.992 v 2.304 q 0,3.264 2.736,3.264 1.344,0 2.016,-0.768 0.72,-0.816 0.72,-2.592 0,-2.112 -0.96,-3.696 -0.96,-1.632 -3.552,-3.888 -3.264,-2.88 -4.56,-5.184 -1.296,-2.352 -1.296,-5.28 0,-3.984 2.016,-6.144 2.016,-2.208 5.856,-2.208 3.792,0 5.712,2.208 1.968,2.16 1.968,6.24 v 1.392 h -4.992 v -1.728 q 0,-1.728 -0.672,-2.496 -0.672,-0.816 -1.968,-0.816 -2.64,0 -2.64,3.216 0,1.824 0.96,3.408 1.008,1.584 3.6,3.84 3.312,2.88 4.56,5.232 1.248,2.352 1.248,5.52 0,4.128 -2.064,6.336 -2.016,2.208 -5.904,2.208 z"
         style="font-family:'Bebas Neue';-inkscape-font-specification:'Bebas Neue'"
         id="path120670" />
      <path
         d="m 418.93159,223.391 q -3.84,0 -5.856,-2.16 -2.016,-2.208 -2.016,-6.288 v -17.664 q 0,-4.08 2.016,-6.24 2.016,-2.208 5.856,-2.208 3.84,0 5.856,2.208 2.016,2.16 2.016,6.24 v 2.88 h -4.992 v -3.216 q 0,-3.312 -2.736,-3.312 -2.736,0 -2.736,3.312 v 18.384 q 0,3.264 2.736,3.264 2.736,0 2.736,-3.264 v -6.576 h -2.64 v -4.8 h 7.632 v 10.992 q 0,4.08 -2.016,6.288 -2.016,2.16 -5.856,2.16 z"
         style="font-family:'Bebas Neue';-inkscape-font-specification:'Bebas Neue'"
         id="path120672" />
      <path
         d="m 434.27359,189.311 h 7.152 l 5.472,33.6 h -5.28 l -0.96,-6.672 v 0.096 h -6 l -0.96,6.576 h -4.896 z m 5.76,22.464 -2.352,-16.608 h -0.096 l -2.304,16.608 z"
         style="font-family:'Bebas Neue';-inkscape-font-specification:'Bebas Neue'"
         id="path120674" />
      <path
         d="m 449.41234,189.311 h 7.968 q 4.08,0 5.952,1.92 1.872,1.872 1.872,5.808 v 1.344 q 0,2.592 -0.864,4.224 -0.816,1.632 -2.544,2.352 v 0.096 q 3.936,1.344 3.936,7.008 v 2.88 q 0,3.888 -2.064,5.952 -2.016,2.016 -5.952,2.016 h -8.304 z m 7.344,13.68 q 1.584,0 2.352,-0.816 0.816,-0.816 0.816,-2.736 v -1.872 q 0,-1.824 -0.672,-2.64 -0.624,-0.816 -2.016,-0.816 h -2.544 v 8.88 z m 0.96,15.12 q 1.392,0 2.064,-0.72 0.672,-0.768 0.672,-2.592 v -2.928 q 0,-2.304 -0.816,-3.168 -0.768,-0.912 -2.592,-0.912 h -2.352 v 10.32 z"
         style="font-family:'Bebas Neue';-inkscape-font-specification:'Bebas Neue'"
         id="path120676" />
      <path
         d="m 468.81859,189.311 h 5.28 v 33.6 h -5.28 z"
         style="font-family:'Bebas Neue';-inkscape-font-specification:'Bebas Neue'"
         id="path120678" />
      <path
         d="m 476.95009,218.207 9.792,-24.096 h -9.312 v -4.8 h 14.976 v 4.704 l -9.792,24.096 h 9.792 v 4.8 h -15.456 z"
         style="font-family:'Bebas Neue';-inkscape-font-specification:'Bebas Neue'"
         id="path120680" />
      <path
         d="m 502.98184,223.391 q -3.888,0 -5.952,-2.208 -2.064,-2.208 -2.064,-6.24 v -17.664 q 0,-4.032 2.064,-6.24 2.064,-2.208 5.952,-2.208 3.888,0 5.952,2.208 2.064,2.208 2.064,6.24 v 17.664 q 0,4.032 -2.064,6.24 -2.064,2.208 -5.952,2.208 z m 0,-4.8 q 2.736,0 2.736,-3.312 v -18.336 q 0,-3.312 -2.736,-3.312 -2.736,0 -2.736,3.312 v 18.336 q 0,3.312 2.736,3.312 z"
         style="font-family:'Bebas Neue';-inkscape-font-specification:'Bebas Neue'"
         id="path120682" />
      <path
         d="m 521.43259,223.391 q -3.84,0 -5.808,-2.16 -1.968,-2.208 -1.968,-6.288 v -1.92 h 4.992 v 2.304 q 0,3.264 2.736,3.264 1.344,0 2.016,-0.768 0.72,-0.816 0.72,-2.592 0,-2.112 -0.96,-3.696 -0.96,-1.632 -3.552,-3.888 -3.264,-2.88 -4.56,-5.184 -1.296,-2.352 -1.296,-5.28 0,-3.984 2.016,-6.144 2.016,-2.208 5.856,-2.208 3.792,0 5.712,2.208 1.968,2.16 1.968,6.24 v 1.392 h -4.992 v -1.728 q 0,-1.728 -0.672,-2.496 -0.672,-0.816 -1.968,-0.816 -2.64,0 -2.64,3.216 0,1.824 0.96,3.408 1.008,1.584 3.6,3.84 3.312,2.88 4.56,5.232 1.248,2.352 1.248,5.52 0,4.128 -2.064,6.336 -2.016,2.208 -5.904,2.208 z"
         style="font-family:'Bebas Neue';-inkscape-font-specification:'Bebas Neue'"
         id="path120684" />
      <path
         d="m 546.93259,223.391 q -3.84,0 -5.808,-2.16 -1.968,-2.208 -1.968,-6.288 v -1.92 h 4.992 v 2.304 q 0,3.264 2.736,3.264 1.344,0 2.016,-0.768 0.72,-0.816 0.72,-2.592 0,-2.112 -0.96,-3.696 -0.96,-1.632 -3.552,-3.888 -3.264,-2.88 -4.56,-5.184 -1.296,-2.352 -1.296,-5.28 0,-3.984 2.016,-6.144 2.016,-2.208 5.856,-2.208 3.792,0 5.712,2.208 1.968,2.16 1.968,6.24 v 1.392 h -4.992 v -1.728 q 0,-1.728 -0.672,-2.496 -0.672,-0.816 -1.968,-0.816 -2.64,0 -2.64,3.216 0,1.824 0.96,3.408 1.008,1.584 3.6,3.84 3.312,2.88 4.56,5.232 1.248,2.352 1.248,5.52 0,4.128 -2.064,6.336 -2.016,2.208 -5.904,2.208 z"
         style="font-family:'Bebas Neue';-inkscape-font-specification:'Bebas Neue'"
         id="path120686" />
      <path
         d="m 557.88109,189.311 h 5.28 v 14.16 l 6.72,-14.16 h 5.28 l -6.288,12.336 6.384,21.264 h -5.52 l -4.464,-14.976 -2.112,4.272 v 10.704 h -5.28 z"
         style="font-family:'Bebas Neue';-inkscape-font-specification:'Bebas Neue'"
         id="path120688" />
      <path
         d="m 582.60409,208.607 -6.384,-19.296 h 5.616 l 3.6,12.336 h 0.096 l 3.6,-12.336 h 5.136 l -6.384,19.296 v 14.304 h -5.28 z"
         style="font-family:'Bebas Neue';-inkscape-font-specification:'Bebas Neue'"
         id="path120690" />
      <path
         d="m 596.69359,189.311 h 7.824 q 4.08,0 5.952,1.92 1.872,1.872 1.872,5.808 v 2.064 q 0,5.232 -3.456,6.624 v 0.096 q 1.92,0.576 2.688,2.352 0.816,1.776 0.816,4.752 v 5.904 q 0,1.44 0.096,2.352 0.096,0.864 0.48,1.728 h -5.376 q -0.288,-0.816 -0.384,-1.536 -0.096,-0.72 -0.096,-2.592 v -6.144 q 0,-2.304 -0.768,-3.216 -0.72,-0.912 -2.544,-0.912 h -1.824 v 14.4 h -5.28 z m 7.2,14.4 q 1.584,0 2.352,-0.816 0.816,-0.816 0.816,-2.736 v -2.592 q 0,-1.824 -0.672,-2.64 -0.624,-0.816 -2.016,-0.816 h -2.4 v 9.6 z"
         style="font-family:'Bebas Neue';-inkscape-font-specification:'Bebas Neue'"
         id="path120692" />
      <path
         d="m 620.08609,189.311 h 7.152 l 5.472,33.6 h -5.28 l -0.96,-6.672 v 0.096 h -6 l -0.96,6.576 h -4.896 z m 5.76,22.464 -2.352,-16.608 h -0.096 l -2.304,16.608 z"
         style="font-family:'Bebas Neue';-inkscape-font-specification:'Bebas Neue'"
         id="path120694" />
      <path
         d="m 642.57109,223.391 q -3.792,0 -5.808,-2.16 -1.968,-2.16 -1.968,-6.096 v -18.048 q 0,-3.936 1.968,-6.096 2.016,-2.16 5.808,-2.16 3.792,0 5.76,2.16 2.016,2.16 2.016,6.096 v 3.552 h -4.992 v -3.888 q 0,-3.12 -2.64,-3.12 -2.64,0 -2.64,3.12 v 18.768 q 0,3.072 2.64,3.072 2.64,0 2.64,-3.072 v -5.136 h 4.992 v 4.752 q 0,3.936 -2.016,6.096 -1.968,2.16 -5.76,2.16 z"
         style="font-family:'Bebas Neue';-inkscape-font-specification:'Bebas Neue'"
         id="path120696" />
      <path
         d="m 653.50609,189.311 h 14.4 v 4.8 h -9.12 v 8.88 h 7.248 v 4.8 h -7.248 v 10.32 h 9.12 v 4.8 h -14.4 z"
         style="font-family:'Bebas Neue';-inkscape-font-specification:'Bebas Neue'"
         id="path120698" />
      <path
         d="m 385.32221,285.18285 q -3.888,0 -5.904,-2.16 -1.968,-2.16 -1.968,-6.192 v -2.736 h 4.992 v 2.976 q 0,3.312 2.736,3.312 1.344,0 2.016,-0.816 0.72,-0.864 0.72,-2.976 v -2.736 q 0,-2.304 -0.816,-3.264 -0.816,-1.008 -2.64,-1.008 h -1.776 v -4.8 h 1.92 q 1.584,0 2.352,-0.816 0.816,-0.816 0.816,-2.736 v -2.448 q 0,-1.728 -0.72,-2.544 -0.72,-0.816 -1.92,-0.816 -2.544,0 -2.544,3.12 v 2.208 h -4.992 v -1.776 q 0,-4.032 1.968,-6.192 2.016,-2.16 5.76,-2.16 3.792,0 5.76,2.16 1.968,2.112 1.968,6.144 v 1.2 q 0,2.736 -0.912,4.416 -0.912,1.632 -2.832,2.352 v 0.096 q 2.064,0.768 2.976,2.496 0.912,1.728 0.912,4.416 v 2.976 q 0,4.032 -2.016,6.192 -1.968,2.112 -5.856,2.112 z"
         style="font-family:'Bebas Neue';-inkscape-font-specification:'Bebas Neue'"
         id="path120700" />
      <path
         d="m 404.44496,259.07085 h -5.52 v -3.744 q 2.256,0 3.6,-0.384 1.392,-0.384 2.208,-1.248 0.816,-0.912 1.44,-2.592 h 3.552 v 33.6 h -5.28 z"
         style="font-family:'Bebas Neue';-inkscape-font-specification:'Bebas Neue'"
         id="path120702" />
      <path
         d="m 416.27171,251.10285 h 5.28 v 14.16 l 6.72,-14.16 h 5.28 l -6.288,12.336 6.384,21.264 h -5.52 l -4.464,-14.976 -2.112,4.272 v 10.704 h -5.28 z"
         style="font-family:'Bebas Neue';-inkscape-font-specification:'Bebas Neue'"
         id="path120704" />
      <path
         d="m 436.14671,251.10285 h 7.536 l 3.36,24.048 h 0.096 l 3.36,-24.048 h 7.536 v 33.6 h -4.992 v -25.44 h -0.096 l -3.84,25.44 h -4.416 l -3.84,-25.44 h -0.096 v 25.44 h -4.608 z"
         style="font-family:'Bebas Neue';-inkscape-font-specification:'Bebas Neue'"
         id="path120706" />
      <path
         d="m 481.32746,251.10285 h 4.56 l -13.248,33.6 h -4.56 z"
         style="font-family:'Bebas Neue';-inkscape-font-specification:'Bebas Neue'"
         id="path120708" />
      <path
         d="m 495.86321,281.05485 q 0,-3.6 1.152,-6.144 1.152,-2.592 4.128,-5.712 2.928,-3.12 4.032,-5.328 1.152,-2.208 1.152,-4.608 0,-2.16 -0.72,-2.976 -0.672,-0.864 -2.016,-0.864 -2.736,0 -2.736,3.312 v 3.6 h -4.992 v -3.264 q 0,-4.08 2.016,-6.24 2.016,-2.208 5.856,-2.208 3.84,0 5.856,2.208 2.016,2.16 2.016,6.24 0,3.072 -1.488,6 -1.44,2.928 -5.04,6.72 -2.352,2.496 -3.168,4.08 -0.816,1.536 -0.816,3.312 v 0.72 h 10.032 v 4.8 h -15.264 z"
         style="font-family:'Bebas Neue';-inkscape-font-specification:'Bebas Neue'"
         id="path120710" />
      <path
         d="m 524.00996,278.60685 h -10.08 v -4.8 l 9.6,-22.704 h 5.76 v 22.704 h 2.496 v 4.8 h -2.496 v 6.096 h -5.28 z m 0,-4.8 v -13.104 h -0.096 l -5.184,13.104 z"
         style="font-family:'Bebas Neue';-inkscape-font-specification:'Bebas Neue'"
         id="path120712" />
      <path
         d="m 542.02871,285.18285 q -3.888,0 -5.952,-2.208 -2.064,-2.208 -2.064,-6.24 v -17.664 q 0,-4.032 2.064,-6.24 2.064,-2.208 5.952,-2.208 3.888,0 5.952,2.208 2.064,2.208 2.064,6.24 v 17.664 q 0,4.032 -2.064,6.24 -2.064,2.208 -5.952,2.208 z m 0,-4.8 q 2.736,0 2.736,-3.312 v -18.336 q 0,-3.312 -2.736,-3.312 -2.736,0 -2.736,3.312 v 18.336 q 0,3.312 2.736,3.312 z"
         style="font-family:'Bebas Neue';-inkscape-font-specification:'Bebas Neue'"
         id="path120714" />
      <path
         d="m 561.24746,285.18285 q -3.888,0 -5.952,-2.208 -2.064,-2.208 -2.064,-6.24 v -17.664 q 0,-4.032 2.064,-6.24 2.064,-2.208 5.952,-2.208 3.888,0 5.952,2.208 2.064,2.208 2.064,6.24 v 17.664 q 0,4.032 -2.064,6.24 -2.064,2.208 -5.952,2.208 z m 0,-4.8 q 2.736,0 2.736,-3.312 v -18.336 q 0,-3.312 -2.736,-3.312 -2.736,0 -2.736,3.312 v 18.336 q 0,3.312 2.736,3.312 z"
         style="font-family:'Bebas Neue';-inkscape-font-specification:'Bebas Neue'"
         id="path120716" />
      <path
         d="m 572.83421,251.10285 h 7.536 l 3.36,24.048 h 0.096 l 3.36,-24.048 h 7.536 v 33.6 h -4.992 v -25.44 h -0.096 l -3.84,25.44 h -4.416 l -3.84,-25.44 h -0.096 v 25.44 h -4.608 z"
         style="font-family:'Bebas Neue';-inkscape-font-specification:'Bebas Neue'"
         id="path120718" />
      <path
         d="m 606.30296,251.10285 h 8.064 q 3.936,0 5.904,2.112 1.968,2.112 1.968,6.192 v 16.992 q 0,4.08 -1.968,6.192 -1.968,2.112 -5.904,2.112 h -8.064 z m 7.968,28.8 q 1.296,0 1.968,-0.768 0.72,-0.768 0.72,-2.496 v -17.472 q 0,-1.728 -0.72,-2.496 -0.672,-0.768 -1.968,-0.768 h -2.688 v 24 z"
         style="font-family:'Bebas Neue';-inkscape-font-specification:'Bebas Neue'"
         id="path120720" />
      <path
         d="m 631.56296,269.77485 h -6.432 v -3.744 h 6.432 v -6.48 h 3.744 v 6.48 h 6.432 v 3.744 h -6.432 v 6.576 h -3.744 z"
         style="font-family:'Bebas Neue';-inkscape-font-specification:'Bebas Neue'"
         id="path120722" />
      <path
         d="m 346.64809,320.86271 h -5.52 v -3.744 q 2.256,0 3.6,-0.384 1.392,-0.384 2.208,-1.248 0.816,-0.912 1.44,-2.592 h 3.552 v 33.6 h -5.28 z"
         style="font-family:'Bebas Neue';-inkscape-font-specification:'Bebas Neue'"
         id="path120724" />
      <path
         d="m 365.91484,346.97471 q -3.84,0 -5.856,-2.16 -2.016,-2.208 -2.016,-6.288 v -0.624 h 4.992 v 0.96 q 0,3.312 2.736,3.312 1.488,0 2.208,-0.912 0.72,-0.912 0.72,-3.216 v -6.432 h -0.096 q -1.392,2.928 -4.8,2.928 -2.88,0 -4.368,-1.968 -1.488,-1.968 -1.488,-5.712 v -6 q 0,-4.032 2.064,-6.24 2.064,-2.208 5.952,-2.208 3.888,0 5.952,2.208 2.064,2.208 2.064,6.24 v 17.376 q 0,8.736 -8.064,8.736 z m 0.048,-17.232 q 2.736,0 2.736,-3.312 v -5.952 q 0,-3.264 -2.736,-3.264 -2.736,0 -2.736,3.264 v 5.952 q 0,3.312 2.736,3.312 z"
         style="font-family:'Bebas Neue';-inkscape-font-specification:'Bebas Neue'"
         id="path120726" />
      <path
         d="m 377.69359,341.40671 h 5.088 v 5.088 h -5.088 z"
         style="font-family:'Bebas Neue';-inkscape-font-specification:'Bebas Neue'"
         id="path120728" />
      <path
         d="m 386.59759,342.84671 q 0,-3.6 1.152,-6.144 1.152,-2.592 4.128,-5.712 2.928,-3.12 4.032,-5.328 1.152,-2.208 1.152,-4.608 0,-2.16 -0.72,-2.976 -0.672,-0.864 -2.016,-0.864 -2.736,0 -2.736,3.312 v 3.6 h -4.992 v -3.264 q 0,-4.08 2.016,-6.24 2.016,-2.208 5.856,-2.208 3.84,0 5.856,2.208 2.016,2.16 2.016,6.24 0,3.072 -1.488,6 -1.44,2.928 -5.04,6.72 -2.352,2.496 -3.168,4.08 -0.816,1.536 -0.816,3.312 v 0.72 h 10.032 v 4.8 h -15.264 z"
         style="font-family:'Bebas Neue';-inkscape-font-specification:'Bebas Neue'"
         id="path120730" />
      <path
         d="m 405.91234,312.89471 h 7.536 l 3.36,24.048 h 0.096 l 3.36,-24.048 h 7.536 v 33.6 h -4.992 v -25.44 h -0.096 l -3.84,25.44 h -4.416 l -3.84,-25.44 h -0.096 v 25.44 h -4.608 z"
         style="font-family:'Bebas Neue';-inkscape-font-specification:'Bebas Neue'"
         id="path120732" />
      <path
         d="m 431.69359,312.89471 h 5.28 v 33.6 h -5.28 z"
         style="font-family:'Bebas Neue';-inkscape-font-specification:'Bebas Neue'"
         id="path120734" />
      <path
         d="m 440.88109,312.89471 h 5.28 v 28.8 h 8.688 v 4.8 h -13.968 z"
         style="font-family:'Bebas Neue';-inkscape-font-specification:'Bebas Neue'"
         id="path120736" />
      <path
         d="m 457.38109,312.89471 h 14.4 v 4.8 h -9.12 v 8.88 h 7.248 v 4.8 h -7.248 v 10.32 h 9.12 v 4.8 h -14.4 z"
         style="font-family:'Bebas Neue';-inkscape-font-specification:'Bebas Neue'"
         id="path120738" />
      <path
         d="m 481.77634,346.97471 q -3.84,0 -5.808,-2.16 -1.968,-2.208 -1.968,-6.288 v -1.92 h 4.992 v 2.304 q 0,3.264 2.736,3.264 1.344,0 2.016,-0.768 0.72,-0.816 0.72,-2.592 0,-2.112 -0.96,-3.696 -0.96,-1.632 -3.552,-3.888 -3.264,-2.88 -4.56,-5.184 -1.296,-2.352 -1.296,-5.28 0,-3.984 2.016,-6.144 2.016,-2.208 5.856,-2.208 3.792,0 5.712,2.208 1.968,2.16 1.968,6.24 v 1.392 h -4.992 v -1.728 q 0,-1.728 -0.672,-2.496 -0.672,-0.816 -1.968,-0.816 -2.64,0 -2.64,3.216 0,1.824 0.96,3.408 1.008,1.584 3.6,3.84 3.312,2.88 4.56,5.232 1.248,2.352 1.248,5.52 0,4.128 -2.064,6.336 -2.016,2.208 -5.904,2.208 z"
         style="font-family:'Bebas Neue';-inkscape-font-specification:'Bebas Neue'"
         id="path120740" />
      <path
         d="m 512.12434,312.89471 h 4.56 l -13.248,33.6 h -4.56 z"
         style="font-family:'Bebas Neue';-inkscape-font-specification:'Bebas Neue'"
         id="path120742" />
      <path
         d="m 537.07609,317.69471 h -10.656 v -4.8 h 15.84 v 4.608 l -8.256,28.992 h -5.376 z"
         style="font-family:'Bebas Neue';-inkscape-font-specification:'Bebas Neue'"
         id="path120744" />
      <path
         d="m 553.60684,346.97471 q -3.984,0 -6.144,-2.112 -2.112,-2.16 -2.112,-6.192 v -2.976 q 0,-2.496 0.816,-4.176 0.816,-1.728 2.64,-2.688 v -0.096 q -1.68,-0.912 -2.496,-2.496 -0.768,-1.632 -0.768,-4.128 v -1.392 q 0,-4.032 2.064,-6.144 2.112,-2.16 6,-2.16 3.888,0 5.952,2.16 2.112,2.112 2.112,6.144 v 1.392 q 0,4.8 -3.264,6.624 v 0.096 q 1.824,0.96 2.64,2.688 0.816,1.68 0.816,4.176 v 2.976 q 0,4.032 -2.16,6.192 -2.112,2.112 -6.096,2.112 z m 0,-20.4 q 2.784,0 2.784,-3.36 v -2.64 q 0,-3.36 -2.784,-3.36 -2.784,0 -2.784,3.36 v 2.64 q 0,3.36 2.784,3.36 z m 0,15.6 q 2.976,0 2.976,-3.792 v -3.216 q 0,-3.792 -2.976,-3.792 -2.976,0 -2.976,3.792 v 3.216 q 0,3.792 2.976,3.792 z"
         style="font-family:'Bebas Neue';-inkscape-font-specification:'Bebas Neue'"
         id="path120746" />
      <path
         d="m 575.51359,317.69471 h -10.656 v -4.8 h 15.84 v 4.608 l -8.256,28.992 h -5.376 z"
         style="font-family:'Bebas Neue';-inkscape-font-specification:'Bebas Neue'"
         id="path120748" />
      <path
         d="m 593.24434,340.39871 h -10.08 v -4.8 l 9.6,-22.704 h 5.76 v 22.704 h 2.496 v 4.8 h -2.496 v 6.096 h -5.28 z m 0,-4.8 v -13.104 h -0.096 l -5.184,13.104 z"
         style="font-family:'Bebas Neue';-inkscape-font-specification:'Bebas Neue'"
         id="path120750" />
      <path
         d="m 603.63109,312.89471 h 13.968 v 4.8 h -8.688 v 9.36 h 6.816 v 4.8 h -6.816 v 14.64 h -5.28 z"
         style="font-family:'Bebas Neue';-inkscape-font-specification:'Bebas Neue'"
         id="path120752" />
      <path
         d="m 624.72784,317.69471 h -5.52 v -4.8 h 16.32 v 4.8 h -5.52 v 28.8 h -5.28 z"
         style="font-family:'Bebas Neue';-inkscape-font-specification:'Bebas Neue'"
         id="path120754" />
      <path
         d="m 653.40484,346.97471 q -3.84,0 -5.856,-2.16 -2.016,-2.208 -2.016,-6.288 v -25.632 h 5.28 v 26.016 q 0,1.728 0.672,2.496 0.72,0.768 2.016,0.768 1.296,0 1.968,-0.768 0.72,-0.768 0.72,-2.496 v -26.016 h 5.088 v 25.632 q 0,4.08 -2.016,6.288 -2.016,2.16 -5.856,2.16 z"
         style="font-family:'Bebas Neue';-inkscape-font-specification:'Bebas Neue'"
         id="path120756" />
      <path
         d="m 665.03734,312.89471 h 7.776 q 3.936,0 5.904,2.112 1.968,2.112 1.968,6.192 v 3.312 q 0,4.08 -1.968,6.192 -1.968,2.112 -5.904,2.112 h -2.496 v 13.68 h -5.28 z m 7.776,15.12 q 1.296,0 1.92,-0.72 0.672,-0.72 0.672,-2.448 v -3.984 q 0,-1.728 -0.672,-2.448 -0.624,-0.72 -1.92,-0.72 h -2.496 v 10.32 z"
         style="font-family:'Bebas Neue';-inkscape-font-specification:'Bebas Neue'"
         id="path120758" />
    </g>
  </g>
</svg>
