<?xml version="1.0" encoding="UTF-8" standalone="no"?>
<svg
   viewBox="0 0 440 512"
   version="1.1"
   id="svg7647"
   sodipodi:docname="chevron-right-solid.svg"
   width="440"
   height="512"
   inkscape:version="1.1.2 (b8e25be8, 2022-02-05)"
   xmlns:inkscape="http://www.inkscape.org/namespaces/inkscape"
   xmlns:sodipodi="http://sodipodi.sourceforge.net/DTD/sodipodi-0.dtd"
   xmlns="http://www.w3.org/2000/svg"
   xmlns:svg="http://www.w3.org/2000/svg">
  <defs
     id="defs7651" />
  <sodipodi:namedview
     id="namedview7649"
     pagecolor="#ffffff"
     bordercolor="#666666"
     borderopacity="1.0"
     inkscape:pageshadow="2"
     inkscape:pageopacity="0.0"
     inkscape:pagecheckerboard="0"
     showgrid="false"
     inkscape:zoom="0.921875"
     inkscape:cx="160"
     inkscape:cy="256"
     inkscape:window-width="1280"
     inkscape:window-height="694"
     inkscape:window-x="0"
     inkscape:window-y="25"
     inkscape:window-maximized="0"
     inkscape:current-layer="svg7647" />
  <!--! Font Awesome Pro 6.1.1 by @fontawesome - https://fontawesome.com License - https://fontawesome.com/license (Commercial License) Copyright 2022 Fonticons, Inc. -->
  <path
     d="m 40,480 c -8.188,0 -16.38,-3.125 -22.62,-9.375 -12.5,-12.5 -12.5,-32.75 0,-45.25 L 186.8,256 17.38,86.63 c -12.5,-12.5 -12.5,-32.75 0,-45.25 12.5,-12.5 32.75,-12.5 45.25,0 l 192,192 c 12.5,12.5 12.5,32.75 0,45.25 l -192,192 C 56.4,476.9 48.2,480 40,480 Z"
     id="path7645"
     style="fill:#d63031;fill-opacity:0.9" />
  <path
     d="m 213.82551,478.91275 c -8.188,0 -16.38,-3.125 -22.62,-9.375 -12.5,-12.5 -12.5,-32.75 0,-45.25 l 169.42,-169.375 -169.42,-169.369999 c -12.5,-12.5 -12.5,-32.75 0,-45.25 12.5,-12.5 32.75,-12.5 45.25,0 l 192,191.999999 c 12.5,12.5 12.5,32.75 0,45.25 l -192,192 c -6.23,6.27 -14.43,9.37 -22.63,9.37 z"
     id="path7645-3"
     style="fill:#d63031;fill-opacity:0.9" />
</svg>
