<?xml version="1.0" encoding="UTF-8" standalone="no"?>
<!-- Created with Inkscape (http://www.inkscape.org/) -->

<svg
   width="500"
   height="500"
   viewBox="0 0 132.29166 132.29167"
   version="1.1"
   id="svg5"
   inkscape:version="1.1.2 (b8e25be8, 2022-02-05)"
   sodipodi:docname="dreambigyearofthewatertiger.svg"
   xmlns:inkscape="http://www.inkscape.org/namespaces/inkscape"
   xmlns:sodipodi="http://sodipodi.sourceforge.net/DTD/sodipodi-0.dtd"
   xmlns="http://www.w3.org/2000/svg"
   xmlns:svg="http://www.w3.org/2000/svg">
  <sodipodi:namedview
     id="namedview7"
     pagecolor="#ffffff"
     bordercolor="#666666"
     borderopacity="1.0"
     inkscape:pageshadow="2"
     inkscape:pageopacity="0.0"
     inkscape:pagecheckerboard="0"
     inkscape:document-units="mm"
     showgrid="false"
     units="px"
     inkscape:zoom="0.54660447"
     inkscape:cx="236.9172"
     inkscape:cy="321.98785"
     inkscape:window-width="1280"
     inkscape:window-height="694"
     inkscape:window-x="0"
     inkscape:window-y="25"
     inkscape:window-maximized="0"
     inkscape:current-layer="layer1" />
  <defs
     id="defs2">
    <rect
       x="-84.155917"
       y="-102.45068"
       width="720.81372"
       height="142.69916"
       id="rect2480" />
  </defs>
  <g
     inkscape:label="Layer 1"
     inkscape:groupmode="layer"
     id="layer1">
    <path
       id="path846"
       style="fill:none;fill-opacity:0.2;stroke-width:0.264583;stroke-linecap:round"
       d="m 115.34661,67.766861 a 50,50 0 0 1 -49.999999,49.999999 50,50 0 0 1 -50,-49.999999 50,50 0 0 1 50,-50 50,50 0 0 1 49.999999,50 z" />
    <g
       aria-label="  DREAM  ENORMOUSLY     YEAR OF THE WATER TIGER"
       transform="translate(-0.04511814,-0.04511772)"
       id="text2478"
       style="font-weight:300;font-size:10.5833px;line-height:1.25;font-family:'LEMON MILK';-inkscape-font-specification:'LEMON MILK, Light';white-space:pre">
      <path
         d="m 122.64619,78.785913 0.46042,-2.274129 -8.16086,-1.67119 -0.46548,2.273092 c -0.52044,2.541409 0.7324,4.485923 3.22318,4.995989 2.50091,0.512139 4.4223,-0.782353 4.94274,-3.323762 z m -7.24661,-1.473419 0.27888,-1.36183 6.3282,1.295898 -0.27576,1.346643 c -0.40432,1.974401 -1.90889,2.98501 -3.83773,2.59002 -1.91871,-0.392916 -2.89584,-1.906455 -2.49359,-3.870731 z"
         style="letter-spacing:0.396875px"
         id="path6416" />
      <path
         d="m 110.9719,88.52975 4.0152,-1.13483 c -0.0711,1.055359 0.53954,2.074409 1.55048,2.454504 1.37372,0.516491 2.92998,-0.24546 3.47375,-1.691735 l 0.86567,-2.30243 -7.79912,-2.926799 -0.33099,0.880341 3.04249,1.14392 -0.54741,1.455948 -3.86088,1.032747 z m 5.5642,-3.301797 3.13924,1.180293 -0.54559,1.451111 c -0.34554,0.919038 -1.33305,1.431081 -2.23274,1.092815 -0.84165,-0.316442 -1.26051,-1.346215 -0.91133,-2.274926 z"
         style="letter-spacing:0.396875px"
         id="path6418" />
      <path
         d="m 114.46373,97.60589 0.81098,0.444924 2.35387,-4.290456 -7.30329,-4.0068 -2.35387,4.290456 0.82003,0.449895 1.90149,-3.465891 2.53712,1.391941 -1.64795,3.003772 0.82456,0.45238 1.64796,-3.003772 2.31059,1.26766 z"
         style="letter-spacing:0.396875px"
         id="path6420" />
      <path
         d="m 103.29385,100.45244 -0.62266,0.81192 9.05866,2.08894 0.0629,-0.082 -4.36981,-8.202921 -0.61952,0.807816 0.71557,1.317232 -2.76739,3.608513 z m 4.64975,-2.471009 2.23582,4.124229 -4.5598,-1.09389 z"
         style="letter-spacing:0.396875px"
         id="path6422" />
      <path
         d="m 101.35734,114.02404 -1.453662,-7.58736 7.378282,2.28957 0.0809,-0.0723 -5.65603,-6.32524 -0.7011,0.62692 3.77528,4.22196 -6.020531,-2.02709 -0.0077,0.007 1.340975,6.19768 -3.768387,-4.21426 -0.701092,0.62692 5.656029,6.32524 z"
         style="letter-spacing:0.396875px"
         id="path6424" />
      <path
         d="m 86.322928,121.2792 0.376273,0.84502 4.470564,-1.99067 -3.388555,-7.60988 -4.470564,1.99068 0.380477,0.85445 3.611385,-1.60809 1.177165,2.64363 -3.129867,1.39368 0.382579,0.85918 3.129867,-1.39368 1.072061,2.40759 z"
         style="letter-spacing:0.396875px"
         id="path6426" />
      <path
         d="m 78.136912,124.76103 -1.609715,-6.01533 7.148911,4.64537 0.04992,-0.0134 -2.18948,-8.18185 -0.90854,0.24312 1.608379,6.01034 -7.155239,-4.64902 -0.04493,0.012 2.192152,8.19184 z"
         style="letter-spacing:0.396875px"
         id="path6428" />
      <path
         d="m 69.103793,117.519 c -2.355084,0.17537 -4.134529,2.23557 -3.960302,4.57519 0.175377,2.35508 2.240722,4.13414 4.590653,3.95915 2.344778,-0.17461 4.123838,-2.23995 3.94846,-4.59504 -0.174226,-2.33962 -2.239187,-4.11353 -4.578811,-3.9393 z m 0.07061,0.94821 c 1.824288,-0.13585 3.424515,1.24257 3.560365,3.06686 0.136235,1.82944 -1.241412,3.43997 -3.065701,3.57582 -1.834595,0.13662 -3.440742,-1.25172 -3.576977,-3.08116 -0.13585,-1.82429 1.247717,-3.4249 3.082313,-3.56152 z"
         style="letter-spacing:0.396875px"
         id="path6430" />
      <path
         d="m 57.13965,117.212 2.142574,3.58037 c -1.037378,0.20659 -1.861952,1.06179 -1.965283,2.13687 -0.140412,1.46087 1.000992,2.76461 2.539024,2.91244 l 2.448507,0.23534 0.791839,-8.2925 -0.936194,-0.09 -0.310981,3.23553 -1.548321,-0.14882 -2.003783,-3.45801 z m 4.638491,4.51072 -0.32087,3.33841 -1.543176,-0.14832 c -0.977345,-0.0939 -1.729178,-0.91377 -1.637219,-1.87054 0.08603,-0.89504 0.97095,-1.56794 1.958583,-1.47301 z"
         style="letter-spacing:0.396875px"
         id="path6432" />
      <path
         d="m 45.713473,123.01675 5.61385,-5.30715 2.039261,7.45135 0.104496,0.0293 2.289187,-8.17062 -0.905635,-0.25373 -1.527983,5.45371 -1.5301,-6.16561 -0.01,-0.003 -4.503018,4.46456 1.525195,-5.44376 -0.905634,-0.25374 -2.289187,8.17062 z"
         style="letter-spacing:0.396875px"
         id="path6434" />
      <path
         d="m 42.522629,112.14333 c -2.099067,-1.08217 -4.693203,-0.25678 -5.768271,1.82851 -1.082172,2.09907 -0.25219,4.69557 1.842284,5.77538 2.089882,1.07743 4.686385,0.24745 5.768558,-1.85162 1.075068,-2.08529 0.242717,-4.6772 -1.842571,-5.75227 z m -0.43571,0.84514 c 1.625973,0.83827 2.269043,2.85004 1.430774,4.47601 -0.840637,1.63057 -2.857142,2.28283 -4.483115,1.44456 -1.63516,-0.84301 -2.278086,-2.86633 -1.437449,-4.4969 0.838269,-1.62597 2.85463,-2.26667 4.48979,-1.42367 z"
         style="letter-spacing:0.396875px"
         id="path6436" />
      <path
         d="m 34.960165,107.31443 c -1.404772,-1.0809 -3.311656,-0.75506 -4.496556,0.78486 l -3.10721,4.03821 0.749485,0.57669 3.104059,-4.03411 c 0.850859,-1.1058 2.195638,-1.36208 3.170378,-0.61207 0.974739,0.75002 1.074744,2.11148 0.220734,3.22137 l -3.104059,4.03411 0.749485,0.5767 3.10721,-4.03821 c 1.184899,-1.53993 1.007151,-3.46979 -0.393526,-4.54755 z"
         style="letter-spacing:0.396875px"
         id="path6438" />
      <path
         d="m 29.412625,102.37035 c -1.110139,-1.15494 -2.704815,-1.46424 -3.740533,-0.4687 -0.964932,0.9275 -0.562129,2.18175 -0.06061,3.43429 0.446819,1.06142 0.868313,1.92497 0.287119,2.48362 -0.536487,0.51568 -1.491208,0.37253 -2.110737,-0.272 -0.519259,-0.54021 -0.679301,-1.31819 -0.41472,-1.94523 l -0.833365,-0.18095 c -0.377506,0.79293 -0.281842,1.86933 0.574039,2.75975 1.01345,1.05434 2.501271,1.22265 3.425221,0.33454 0.927675,-0.89169 0.497637,-2.06242 0.07545,-3.07583 -0.447109,-1.0468 -0.950214,-2.21897 -0.275879,-2.86715 0.592371,-0.56939 1.633038,-0.33683 2.388649,0.44927 0.612367,0.63708 0.860492,1.58126 0.607778,2.34742 l 0.885091,0.15274 c 0.36506,-0.90282 0.141488,-2.16449 -0.807502,-3.15177 z"
         style="letter-spacing:0.396875px"
         id="path6440" />
      <path
         d="m 24.989755,98.850919 -5.898039,4.460641 0.56732,0.75013 6.644053,-5.02484 -3.029868,-4.006215 -0.746013,0.564204 z"
         style="letter-spacing:0.396875px"
         id="path6442" />
      <path
         d="m 22.22927,93.102899 -0.466981,-0.810426 -3.067081,1.767306 -5.623819,-0.164978 0.528902,0.917885 4.418187,0.173809 -2.065219,3.909662 0.526322,0.913408 2.682608,-4.93936 z"
         style="letter-spacing:0.396875px"
         id="path6444" />
      <path
         d="m 15.443913,70.945887 -0.05,-0.934003 -3.534762,0.189241 -4.9412869,-2.690399 0.056634,1.057849 3.8619877,2.153053 -3.6100349,2.553083 0.056358,1.052688 4.626345,-3.192271 z"
         style="letter-spacing:0.396875px"
         id="path6446" />
      <path
         d="m 8.387545,60.131934 -0.9214705,-0.08079 -0.4274136,4.875042 8.2983821,0.727551 0.427413,-4.875042 -0.931766,-0.08169 -0.345271,3.938128 -2.882812,-0.252747 0.299234,-3.413044 -0.936914,-0.08214 -0.299234,3.413044 -2.6254188,-0.23018 z"
         style="letter-spacing:0.396875px"
         id="path6448" />
      <path
         d="m 17.466742,53.029614 0.243565,-0.993778 -9.1339076,1.730512 -0.024603,0.100382 7.2997862,5.752934 0.242335,-0.988758 -1.184901,-0.918236 1.082514,-4.416789 z m -3.2634,4.132341 -3.705668,-2.876835 4.614733,-0.832264 z"
         style="letter-spacing:0.396875px"
         id="path6450" />
      <path
         d="m 20.589372,45.196979 -4.057632,0.972264 c 0.113497,-1.051642 -0.455585,-2.094448 -1.450405,-2.514934 -1.351812,-0.571377 -2.93749,0.127305 -3.539046,1.550515 l -0.95766,2.265713 7.674974,3.238408 0.366164,-0.866302 -2.993978,-1.265479 0.605579,-1.432731 3.899328,-0.876476 z m -5.69262,3.075114 -3.089176,-1.305717 0.603567,-1.427971 c 0.382259,-0.904381 1.389587,-1.376253 2.274929,-1.002042 0.828223,0.350069 1.20529,1.39587 0.819007,2.309771 z"
         style="letter-spacing:0.396875px"
         id="path6452" />
      <path
         d="m 25.363605,37.920254 c 1.414468,-1.891153 1.029538,-4.586081 -0.849201,-5.991264 -1.891153,-1.414467 -4.589177,-1.0254 -6.000549,0.861616 -1.408277,1.882877 -1.01921,4.5809 0.871944,5.995368 1.878739,1.405182 4.572624,1.013019 5.977806,-0.86572 z m -0.761427,-0.569501 c -1.095671,1.46492 -3.186096,1.766369 -4.651016,0.670699 -1.469058,-1.098766 -1.778784,-3.195382 -0.683113,-4.660302 1.101861,-1.473196 3.203658,-1.772593 4.672716,-0.673828 1.46492,1.095671 1.763274,3.190235 0.661413,4.663431 z"
         style="letter-spacing:0.396875px"
         id="path6454" />
      <path
         d="m 27.501704,24.501033 -0.648903,-0.673637 -3.524499,3.395088 5.800688,6.021795 0.677359,-0.652488 -2.5741,-2.672218 2.467521,-2.37692 -0.652487,-0.677359 -2.467522,2.37692 -1.925198,-1.998581 z"
         style="letter-spacing:0.396875px"
         id="path6456" />
      <path
         d="m 36.528736,16.960424 -4.875752,3.09927 0.498988,0.785005 2.045374,-1.300141 3.969726,6.245149 0.793727,-0.504532 -3.969726,-6.245149 2.036651,-1.294597 z"
         style="letter-spacing:0.396875px"
         id="path6458" />
      <path
         d="m 43.70977,13.54235 1.494146,3.37927 -3.861347,1.707297 -1.494147,-3.37927 -0.860177,0.380328 3.36862,7.618718 0.860178,-0.380328 -1.498326,-3.388723 3.861348,-1.707297 1.498326,3.388723 0.855451,-0.378238 -3.36862,-7.618719 z"
         style="letter-spacing:0.396875px"
         id="path6460" />
      <path
         d="m 52.774533,11.684467 -0.242172,-0.892741 -4.723051,1.281212 2.180902,8.03966 4.723051,-1.281212 -0.244878,-0.902716 -3.815348,1.034981 -0.757633,-2.792934 3.306634,-0.896984 -0.246231,-0.907703 -3.306634,0.896984 -0.689988,-2.543565 z"
         style="letter-spacing:0.396875px"
         id="path6462" />
      <path
         d="m 61.880216,17.909807 0.139438,-0.005 1.956607,-5.597499 2.360783,5.443497 0.144601,-0.0052 2.283379,-8.4686691 -1.012211,0.036106 -1.590702,6.1429055 -2.217108,-5.329691 -0.0723,0.0026 -1.842065,5.474482 -2.024338,-6.0139568 -1.007046,0.035921 z"
         style="letter-spacing:0.396875px"
         id="path6464" />
      <path
         d="m 75.193754,18.618967 1.014717,0.131408 -2.736693,-8.8844503 -0.102497,-0.013273 -4.904431,7.8949147 1.009592,0.130743 0.780603,-1.279767 4.509852,0.584032 z m -4.469986,-2.783028 2.446372,-4.002927 1.340879,4.493381 z"
         style="letter-spacing:0.396875px"
         id="path6466" />
      <path
         d="m 83.766007,12.331117 -5.566783,-1.545754 -0.248869,0.896262 2.335261,0.648443 -1.979892,7.130262 0.90622,0.251634 1.979892,-7.130262 2.325302,0.645677 z"
         style="letter-spacing:0.396875px"
         id="path6468" />
      <path
         d="m 90.405946,16.042726 0.365893,-0.849563 -4.494613,-1.935761 -3.295086,7.650809 4.494613,1.935761 0.369982,-0.859055 -3.630812,-1.563735 1.144695,-2.657849 3.146703,1.355237 0.372026,-0.863801 -3.146703,-1.355237 1.04249,-2.420541 z"
         style="letter-spacing:0.396875px"
         id="path6470" />
      <path
         d="m 94.272833,26.838389 -0.360509,-4.156887 c 1.02323,0.268017 2.138827,-0.140323 2.70203,-1.061885 0.765309,-1.252266 0.309211,-2.923943 -1.009196,-3.729674 l -2.098868,-1.2827 -4.339527,7.110626 0.802508,0.490444 1.694998,-2.773504 1.327225,0.81112 0.289227,3.986141 z m -2.197982,-6.08532 1.748892,-2.861692 1.322816,0.808425 c 0.837784,0.512002 1.155242,1.578114 0.654018,2.398259 -0.468886,0.767234 -1.559003,0.985234 -2.405605,0.467842 z"
         style="letter-spacing:0.396875px"
         id="path6472" />
      <path
         d="m 107.55491,27.403713 -4.19404,-3.97347 -0.63974,0.675248 1.7594,1.666867 -5.089453,5.371973 0.682753,0.646844 5.08945,-5.371973 1.75189,1.659759 z"
         style="letter-spacing:0.396875px"
         id="path6474" />
      <path
         d="m 102.80655,34.645323 0.61656,0.710217 6.29049,-5.460969 -0.61656,-0.710217 z"
         style="letter-spacing:0.396875px"
         id="path6476" />
      <path
         d="m 112.89605,40.979494 -2.19898,-3.29142 -0.70469,0.4708 1.65928,2.483604 c -0.0358,0.03013 -0.0831,0.06171 -0.13463,0.09616 -1.22461,0.818158 -2.8432,0.358252 -3.74748,-0.995269 -1.06791,-1.598444 -0.64426,-3.652699 0.87684,-4.668937 1.56836,-1.047816 3.64705,-0.5597 4.62309,0.901243 0.46506,0.696097 0.6539,1.788041 0.47992,2.681123 l 0.94165,0.0048 c 0.1896,-1.027822 -0.0726,-2.350446 -0.63666,-3.204101 -1.30618,-1.955086 -3.984,-2.484174 -5.93909,-1.177993 -1.95508,1.306182 -2.48562,3.972537 -1.15647,5.961998 1.19422,1.787507 3.52098,2.39577 5.46317,1.098201 0.19766,-0.132054 0.37094,-0.272683 0.47405,-0.360212 z"
         style="letter-spacing:0.396875px"
         id="path6478" />
      <path
         d="m 118.71935,46.438126 0.8425,-0.381865 -2.02026,-4.457273 -7.58724,3.438918 2.02026,4.457273 0.85191,-0.386132 -1.63199,-3.600648 2.63577,-1.194661 1.41439,3.120561 0.85663,-0.388265 -1.4144,-3.120561 2.40043,-1.087995 z"
         style="letter-spacing:0.396875px"
         id="path6480" />
      <path
         d="m 114.30796,57.02486 2.53381,-3.315038 c 0.57568,0.88737 1.67524,1.337095 2.71229,1.035402 1.40918,-0.409954 2.19821,-1.952669 1.7666,-3.436283 l -0.68711,-2.361875 -7.99717,2.331888 0.26272,0.90307 3.12105,-0.907963 0.43449,1.493538 -2.47147,3.140828 z m 2.47488,-5.978061 3.22029,-0.936833 0.43305,1.488577 c 0.27426,0.942765 -0.20929,1.944537 -1.13221,2.213028 -0.86338,0.25117 -1.81589,-0.322063 -2.09304,-1.274752 z"
         style="letter-spacing:0.396875px"
         id="path6482" />
    </g>
    <path
       id="path3352"
       style="fill:none;fill-opacity:0.2;stroke:#000000;stroke-width:0.264583;stroke-linecap:round"
       d="M 127.05947,67.389473 A 62,62 0 0 1 65.059471,129.38947 62,62 0 0 1 3.0594711,67.389473 a 62,62 0 0 1 61.9999999,-62 62,62 0 0 1 61.999999,62 z" />
  </g>
</svg>
