<?xml version="1.0" encoding="UTF-8" standalone="no"?>
<!-- Created with Inkscape (http://www.inkscape.org/) -->

<svg
   version="1.1"
   id="svg824"
   width="2483.0984"
   height="919.54596"
   viewBox="0 0 2483.0984 919.54599"
   sodipodi:docname="canfrancprofile.svg"
   inkscape:version="1.1.2 (b8e25be8, 2022-02-05)"
   xmlns:inkscape="http://www.inkscape.org/namespaces/inkscape"
   xmlns:sodipodi="http://sodipodi.sourceforge.net/DTD/sodipodi-0.dtd"
   xmlns="http://www.w3.org/2000/svg"
   xmlns:svg="http://www.w3.org/2000/svg">
  <defs
     id="defs828" />
  <sodipodi:namedview
     id="namedview826"
     pagecolor="#ffffff"
     bordercolor="#666666"
     borderopacity="1.0"
     inkscape:pageshadow="2"
     inkscape:pageopacity="0.0"
     inkscape:pagecheckerboard="0"
     showgrid="false"
     inkscape:zoom="0.34296751"
     inkscape:cx="1281.4625"
     inkscape:cy="411.11766"
     inkscape:window-width="1280"
     inkscape:window-height="694"
     inkscape:window-x="0"
     inkscape:window-y="25"
     inkscape:window-maximized="0"
     inkscape:current-layer="g830"
     fit-margin-top="6"
     fit-margin-bottom="6"
     fit-margin-left="5"
     fit-margin-right="5" />
  <g
     inkscape:groupmode="layer"
     inkscape:label="Image"
     id="g830"
     transform="translate(-110.05648,-299.84151)">
    <path
       style="fill:none;stroke:#000000;stroke-width:4;stroke-linecap:butt;stroke-linejoin:miter;stroke-miterlimit:4;stroke-dasharray:none;stroke-opacity:1"
       d="m 116.62912,1131.3025 32.07301,-40.8202 23.32583,-29.1573 64.14602,-166.19647 20.41009,-23.32583 23.32583,-163.28077 h 5.83145 l 8.74719,-46.65165 23.32582,209.93242 29.15728,43.73592 17.49437,55.39884 h 29.15728 l 2.91573,-11.66292 11.66291,2.91573 81.64039,247.83693 29.15728,-23.3259 23.32583,-96.219 46.65165,-224.51105 20.41009,-177.85942 43.73592,-204.10097 8.74719,17.49437 26.24155,-195.35378 23.32583,148.70213 17.49436,-49.56737 2.91573,23.32582 17.49437,-5.83146 14.57864,166.19651 11.66291,-29.15729 14.57864,64.14602 32.07301,-81.64038 14.57864,-58.31457 5.83146,-17.49436 29.15728,207.01669 20.4101,-11.66291 14.57864,37.90446 23.32582,-87.47184 23.32583,-169.11223 8.74718,-46.65165 20.4101,46.65165 11.66291,2.91573 2.91573,34.98874 8.74719,-32.07301 37.9045,207.01669 8.7471,-23.32582 32.0731,151.61786 46.6516,137.03922 40.8202,-93.3033 8.7472,-43.73592 20.4101,-17.49437 17.4943,-78.72466 8.7472,14.57864 23.3259,-148.70213 11.6629,81.64039 23.3258,81.64038 40.8202,128.29204 20.4101,-23.32583 8.7472,-37.90446 11.6629,-8.74719 34.9887,-148.70213 14.5787,-20.4101 37.9044,-142.87067 11.6629,69.97747 20.4101,102.05049 55.3989,236.17397 20.4101,69.97748 72.8932,99.13472 17.4943,-64.14599 46.6517,-172.02795 11.6629,-26.24156 55.3988,-180.77514 23.3259,34.98874 11.6629,37.90446 8.7471,-17.49437 2.9158,17.49437 17.4943,-52.4831 5.8315,5.83145 8.7472,-26.24155 14.5786,61.23029 20.4101,14.57864 20.4101,-8.74718 14.5787,23.32582 20.4101,-93.3033 h 11.6629 l 5.8314,20.4101 2.9158,-20.4101 5.8314,32.07301 11.6629,-43.73592 8.7472,32.07301 8.7472,-17.49437 23.3258,90.38757 14.5787,84.55612 26.2415,72.8932 23.3258,52.4831 23.3259,-14.57864 29.1572,49.56738 23.3259,-11.66291 34.9887,-102.05048 23.3258,-102.05049 17.4944,-29.15728 14.5786,-11.66291 32.073,-256.58407 37.9045,262.41553 14.5787,-17.49437 17.4943,67.06174 32.073,131.20777 37.9045,-163.28078 34.9887,96.21903 93.3033,242.00543 14.5787,-5.8315 26.2415,81.6404"
       id="path947" />
  </g>
</svg>
